<?xml version="1.0" standalone="no"?>
<!DOCTYPE svg PUBLIC "-//W3C//DTD SVG 20010904//EN"
 "http://www.w3.org/TR/2001/REC-SVG-20010904/DTD/svg10.dtd">
<svg version="1.0" xmlns="http://www.w3.org/2000/svg"
 width="2048.000000pt" height="2048.000000pt" viewBox="0 0 2048.000000 2048.000000"
 preserveAspectRatio="xMidYMid meet">
<metadata>
Created by potrace 1.14, written by Peter Selinger 2001-2017
</metadata>
<g transform="translate(0.000000,2048.000000) scale(0.100000,-0.100000)"
fill="#000000" stroke="none">
<path d="M9900 19853 c-768 -22 -1644 -169 -2432 -407 -1037 -314 -2055 -825
-2918 -1467 -1083 -804 -1963 -1794 -2633 -2964 -134 -234 -380 -729 -482
-970 -1000 -2351 -1035 -4965 -99 -7326 715 -1805 1975 -3361 3599 -4446 1274
-850 2737 -1381 4275 -1552 664 -74 1434 -74 2090 -1 397 45 699 96 1140 195
468 104 1065 299 1567 511 1799 761 3339 2074 4380 3734 585 932 1010 1967
1237 3010 20 91 40 185 46 210 5 25 14 74 20 110 6 36 15 85 20 110 15 69 48
293 76 514 49 396 79 957 69 1306 -30 1086 -190 1993 -527 2979 -225 661 -564
1367 -950 1979 -619 984 -1421 1856 -2343 2548 -987 742 -2069 1271 -3261
1597 -303 83 -424 110 -874 192 -182 34 -517 81 -670 94 -69 6 -165 16 -215
21 -208 23 -742 34 -1115 23z m845 -29 c159 -9 658 -54 710 -64 28 -5 88 -14
135 -20 94 -11 205 -31 350 -61 52 -11 109 -22 125 -24 17 -3 50 -9 75 -14 25
-5 69 -12 99 -15 30 -3 59 -11 66 -16 6 -5 15 -7 18 -4 3 3 12 2 19 -2 7 -5
22 -10 33 -11 34 -4 59 -9 75 -16 31 -13 133 -36 141 -32 4 3 10 1 13 -4 5 -7
44 -18 96 -26 3 0 11 -4 18 -8 6 -5 16 -6 21 -2 5 3 13 0 16 -6 4 -5 14 -8 22
-5 8 3 20 3 26 -1 7 -4 17 -8 22 -9 6 -1 30 -9 54 -18 24 -9 47 -14 51 -11 5
3 11 1 14 -4 3 -5 30 -15 58 -22 29 -7 55 -14 58 -14 3 -1 18 -7 34 -14 16 -6
31 -9 34 -6 3 2 10 1 16 -4 6 -5 101 -39 211 -76 267 -89 516 -185 540 -206 5
-5 15 -9 22 -9 8 0 46 -15 86 -34 40 -19 81 -36 92 -38 11 -1 26 -9 33 -16 8
-7 18 -10 23 -7 5 4 9 2 9 -3 0 -9 40 -24 56 -21 4 0 10 -4 13 -9 3 -5 49 -29
101 -54 l95 -45 19 -64 c11 -35 21 -58 24 -51 6 18 19 14 25 -8 6 -23 27 -27
27 -5 0 8 4 15 10 15 5 0 7 -6 4 -13 -3 -8 28 -30 88 -60 95 -48 120 -72 179
-174 10 -19 39 -43 66 -57 86 -44 156 -133 203 -259 16 -43 22 -87 25 -193 3
-76 8 -141 12 -144 5 -4 28 -15 53 -24 25 -10 70 -33 101 -52 52 -31 76 -55
168 -164 19 -23 40 -39 47 -36 7 3 18 -2 24 -10 7 -8 9 -14 6 -14 -4 0 14 -18
41 -41 54 -46 123 -165 123 -211 0 -16 4 -37 10 -47 13 -25 16 -192 3 -216 -5
-11 -16 -62 -23 -113 -13 -103 -11 -110 46 -140 38 -20 99 -91 119 -138 9 -22
28 -40 56 -55 66 -33 148 -117 176 -179 50 -110 48 -238 -4 -425 -39 -141 -55
-215 -60 -283 l-5 -62 101 -98 c176 -170 210 -253 186 -457 -7 -59 -30 -134
-96 -311 -88 -241 -101 -353 -43 -387 8 -4 14 -14 14 -20 0 -7 23 -35 50 -62
59 -58 100 -127 122 -205 32 -114 37 -133 33 -140 -2 -4 -9 -45 -15 -93 -6
-48 -20 -121 -31 -164 -11 -43 -27 -107 -34 -143 -7 -36 -18 -81 -24 -100 -24
-76 -17 -98 55 -169 104 -103 142 -159 165 -242 30 -105 20 -212 -33 -383 -10
-32 -23 -86 -29 -120 -6 -33 -14 -68 -17 -76 -3 -8 -6 -21 -6 -28 -1 -7 -6
-16 -11 -20 -13 -9 -24 -45 -62 -197 -21 -85 -17 -217 11 -335 12 -54 33 -237
31 -280 -1 -25 -5 -90 -8 -145 -4 -55 -9 -214 -12 -354 -3 -139 -8 -257 -11
-262 -3 -5 -10 -37 -15 -71 -5 -35 -21 -96 -35 -136 -14 -40 -24 -78 -22 -85
1 -6 -3 -22 -10 -34 -10 -17 -9 -22 4 -27 9 -3 26 -3 40 0 31 8 45 -21 19 -40
-15 -11 -16 -14 -3 -18 9 -4 15 -20 16 -38 l1 -32 -46 6 c-44 5 -73 20 -73 37
0 5 14 15 30 24 36 18 39 34 7 28 -22 -4 -45 -40 -75 -113 -22 -54 -43 -152
-37 -171 4 -11 2 -25 -3 -32 -5 -7 -12 -25 -16 -42 -22 -97 -23 -110 -14 -138
7 -19 7 -31 1 -36 -15 -9 -26 -51 -14 -51 28 0 41 13 35 36 -5 18 -2 24 10 24
23 0 20 21 -4 27 -24 6 -26 21 -5 30 14 5 14 8 -1 24 -23 26 -8 39 34 31 36
-8 78 -61 55 -69 -16 -6 -5 -103 15 -125 14 -17 13 -18 -11 -18 -14 0 -29 5
-32 10 -9 15 -22 12 -29 -6 -4 -11 9 -31 39 -60 25 -25 45 -50 45 -56 0 -6
-34 24 -76 66 -42 42 -80 76 -85 76 -5 0 -9 9 -9 19 0 26 -16 30 -175 47 -77
8 -225 28 -330 44 -234 36 -402 52 -937 90 -230 17 -563 43 -740 60 -545 50
-1118 88 -1118 74 0 -5 4 -24 9 -41 7 -24 4 -54 -10 -114 -23 -97 -24 -140 -4
-254 19 -105 58 -203 126 -314 85 -139 200 -245 384 -356 61 -36 234 -97 314
-110 88 -14 126 -89 82 -161 -10 -17 -95 -100 -188 -184 -220 -200 -353 -337
-587 -604 -246 -281 -268 -311 -783 -1051 -214 -308 -398 -594 -439 -682 -49
-106 -98 -190 -159 -273 -22 -31 -58 -86 -80 -124 -21 -37 -55 -82 -75 -100
-34 -31 -193 -262 -303 -442 -56 -90 -89 -135 -287 -384 -123 -155 -257 -325
-339 -431 -108 -138 -161 -167 -211 -114 -13 14 -28 25 -35 25 -21 0 -93 75
-115 119 -12 23 -47 71 -79 105 -146 157 -310 413 -511 795 -55 104 -155 285
-223 402 -68 118 -164 291 -214 384 -50 94 -161 289 -247 435 -157 265 -319
575 -446 852 -37 80 -90 184 -118 230 -27 46 -73 130 -102 188 -83 168 -152
262 -300 411 -173 175 -233 218 -357 260 -168 55 -213 83 -213 134 0 36 10 51
65 90 81 58 184 157 238 227 63 83 320 505 366 601 38 79 141 352 141 373 0 8
7 29 16 46 l16 31 -234 -7 c-128 -4 -399 -11 -603 -16 -1283 -34 -1480 -51
-2285 -191 -500 -86 -575 -104 -749 -173 -60 -25 -98 -35 -115 -30 -22 5 -26
2 -36 -38 -6 -23 -13 -47 -15 -53 -8 -16 6 77 15 110 39 137 87 774 59 791 -6
4 -6 10 0 18 6 7 13 32 16 56 9 64 23 119 61 245 19 61 36 136 38 168 2 31 9
64 15 71 7 8 10 35 8 62 -2 27 -1 54 3 59 10 14 19 94 11 99 -3 3 -5 40 -4 82
1 60 -2 83 -14 96 -23 26 -33 22 -33 -13 0 -23 -4 -30 -15 -26 -8 4 -17 2 -20
-3 -9 -15 -25 -12 -25 5 0 8 6 15 14 15 18 0 40 26 28 34 -15 9 -21 59 -10 79
7 14 16 17 39 12 25 -6 29 -4 29 14 0 12 -6 21 -15 21 -8 0 -15 5 -15 10 0 6
6 10 14 10 16 0 30 61 21 91 -4 11 -17 24 -31 29 -25 10 -44 57 -27 69 5 3 13
14 16 25 6 14 4 17 -8 12 -8 -3 -22 -9 -30 -12 -23 -9 -19 62 6 102 24 40 33
42 53 13 10 -14 20 -19 34 -15 16 5 21 17 24 57 3 55 -12 79 -50 79 -23 0 -30
25 -9 33 16 6 -23 38 -40 32 -7 -2 -10 2 -6 11 3 8 -6 25 -21 39 -15 14 -24
29 -21 35 3 5 0 18 -6 28 -21 34 -4 55 40 50 22 -2 39 0 38 3 -1 4 3 8 8 9 14
4 44 -59 45 -92 0 -44 10 -58 40 -58 22 0 30 -6 39 -31 8 -23 15 -30 27 -25
12 4 15 2 10 -9 -4 -10 1 -15 14 -15 11 0 20 -7 20 -15 0 -8 -7 -15 -15 -15
-8 0 -15 5 -15 11 0 6 -12 -3 -26 -21 -19 -22 -26 -42 -26 -69 1 -31 -3 -40
-20 -44 -12 -3 -17 -10 -13 -17 4 -6 14 -9 22 -6 9 4 22 1 29 -5 11 -9 16 -6
23 13 10 25 30 46 64 63 24 12 36 47 44 130 10 112 6 179 -12 214 l-17 34 -23
-26 c-13 -14 -29 -27 -36 -29 -8 -3 -9 -9 -5 -17 7 -11 10 -11 17 0 10 17 23
5 16 -16 -4 -8 -16 -15 -27 -15 -15 0 -20 7 -20 25 0 14 -4 25 -10 25 -15 0
-12 21 7 42 15 17 15 18 -7 18 -15 0 -20 4 -17 14 3 8 2 16 -4 18 -5 2 -12 26
-15 55 -6 46 -4 52 16 63 20 11 20 12 4 24 -23 17 -8 39 21 32 26 -7 40 7 50
47 6 23 4 27 -13 27 -11 0 -22 -7 -26 -15 -7 -19 -50 -19 -66 0 -15 18 -6 45
14 45 8 0 20 -8 25 -17 10 -17 10 -17 11 0 0 10 8 17 20 17 11 0 20 4 20 9 0
5 8 12 18 15 13 4 17 16 17 45 0 22 -1 38 -4 36 -7 -8 -51 66 -45 76 3 6 16
14 28 19 19 8 17 9 -10 9 -17 1 -37 8 -44 16 -15 18 -3 40 14 26 7 -6 23 -7
36 -4 16 4 27 1 36 -12 10 -14 14 -15 14 -4 0 8 -9 20 -20 27 -11 7 -20 19
-20 27 0 8 -4 15 -10 15 -5 0 -10 7 -10 15 0 8 5 15 10 15 6 0 10 -5 10 -11 0
-6 9 -22 20 -36 l20 -26 0 31 c0 17 5 34 10 37 6 3 10 13 10 22 0 12 -7 14
-34 9 -31 -6 -36 -4 -49 24 -9 17 -11 32 -6 36 5 3 9 14 9 25 0 21 15 26 24 7
4 -9 5 -8 4 2 -2 20 13 72 24 86 6 8 0 13 -19 17 -37 7 -54 -2 -51 -26 2 -11
-3 -22 -9 -24 -7 -3 -13 2 -13 11 0 8 -4 18 -10 21 -5 3 -8 0 -5 -7 3 -7 1
-19 -4 -27 -8 -12 -12 -13 -26 -1 -15 12 -15 11 -4 -16 7 -16 17 -35 22 -42
19 -25 -3 -25 -26 0 -36 39 -40 58 -17 78 20 17 20 19 3 28 -32 18 -3 30 78
34 20 1 30 10 44 42 10 23 18 47 16 54 -1 6 3 12 9 12 20 0 23 31 5 50 -10 11
-29 20 -42 20 -32 0 -29 12 6 28 35 16 42 40 32 112 -5 30 -9 49 -10 43 -1
-10 -7 -10 -26 -1 -18 8 -24 16 -19 27 4 9 9 28 12 44 2 15 9 30 14 33 5 3 -2
21 -16 39 -33 43 -33 65 0 35 21 -21 27 -22 34 -10 5 8 10 18 10 21 0 13 -29
31 -40 24 -5 -3 -10 2 -10 13 0 11 -7 25 -15 32 -27 22 1 110 36 110 15 0 19
6 17 26 -3 30 9 39 32 23 11 -8 12 -12 3 -16 -7 -2 -13 -18 -13 -35 0 -22 -4
-29 -15 -25 -18 8 -32 -13 -15 -23 7 -4 9 -13 6 -19 -4 -6 -2 -11 4 -11 6 0
14 9 18 21 5 11 12 19 17 17 6 -2 10 9 11 23 1 14 4 31 8 38 4 7 2 18 -4 26
-9 11 -9 19 -2 28 6 7 12 54 13 104 3 84 1 95 -19 116 -13 14 -20 31 -17 39 4
9 0 18 -9 21 -20 8 -21 46 -1 53 8 4 22 1 30 -6 12 -10 15 -9 15 6 1 11 8 69
17 129 8 61 16 130 17 153 1 30 7 47 19 53 22 13 22 28 -1 46 -15 13 -14 14
17 9 27 -5 31 -3 22 7 -6 8 -7 17 -3 21 4 4 -1 14 -11 21 -12 8 -14 15 -7 20
5 3 8 10 5 15 -3 5 -1 11 4 15 6 3 8 12 5 20 -8 19 40 14 64 -8 16 -15 18 -15
18 1 0 9 3 41 7 70 l8 52 -31 0 c-24 0 -33 6 -40 26 -6 14 -15 22 -20 19 -15
-9 -42 15 -36 31 3 8 -4 20 -16 28 -15 11 -18 20 -12 33 4 10 8 27 8 38 1 34
32 29 56 -9 12 -20 23 -36 24 -36 2 0 2 26 2 57 -1 38 3 58 11 58 6 0 15 3 19
8 4 4 2 7 -4 7 -7 0 -12 11 -12 24 0 16 -7 27 -20 31 -11 3 -20 10 -20 13 0
20 33 51 61 57 35 8 36 9 43 89 4 44 2 56 -7 47 -18 -18 -37 -13 -37 11 0 12
-12 35 -27 51 -16 16 -21 28 -13 25 8 -3 29 1 46 8 19 8 35 9 45 3 12 -7 11
-9 -2 -9 -9 0 -21 -6 -27 -13 -9 -10 -3 -17 22 -31 l34 -18 43 47 c24 26 50
58 57 71 12 22 10 25 -24 39 -45 18 -50 19 -35 2 6 -8 8 -17 4 -20 -12 -13
-23 -7 -23 12 0 11 -5 23 -10 26 -8 5 -8 11 0 20 9 10 7 16 -9 24 -11 6 -28
11 -39 11 -27 0 -42 21 -35 48 3 12 1 22 -3 23 -53 4 -81 20 -70 38 11 17 39
14 33 -3 -4 -11 2 -14 22 -14 16 1 33 -2 39 -6 6 -3 14 -1 17 5 5 7 14 4 29
-9 11 -10 29 -22 39 -25 9 -4 17 -17 18 -29 0 -13 3 -17 6 -11 2 8 14 11 26 8
12 -3 28 -1 36 4 12 8 12 12 -2 26 -31 30 -32 64 -4 93 32 35 43 59 45 99 3
41 -14 51 -42 24 -12 -12 -27 -21 -32 -21 -12 0 -38 59 -36 81 1 14 -2 15 -22
6 -20 -9 -21 -13 -10 -25 22 -21 17 -35 -11 -28 -21 5 -25 3 -25 -17 0 -13
-14 -36 -31 -53 l-30 -29 -19 25 c-11 14 -20 35 -20 46 0 15 -8 24 -25 28 -30
8 -33 26 -5 26 15 0 20 7 20 25 0 24 2 25 40 19 27 -4 40 -3 40 5 0 6 16 11
35 11 23 0 38 6 41 15 5 13 9 13 23 3 14 -12 14 -11 3 4 -14 18 -8 58 9 58 5
0 9 -11 9 -24 0 -23 2 -24 33 -13 17 7 43 22 57 35 22 19 25 32 28 95 1 39 3
93 5 118 2 37 -1 45 -15 46 -10 1 -18 -4 -18 -11 0 -16 -48 -28 -56 -14 -4 5
-15 8 -25 5 -11 -3 -19 -2 -19 2 0 13 24 31 42 31 10 0 18 5 18 11 0 5 -4 8
-9 5 -13 -8 -74 51 -66 64 3 6 11 8 16 4 5 -3 7 -9 4 -14 -3 -4 2 -10 10 -14
14 -5 19 4 16 31 -1 6 3 14 9 18 6 4 10 -4 10 -19 0 -16 6 -26 15 -26 8 0 15
-9 15 -19 0 -22 25 -35 47 -22 13 7 11 11 -13 22 -33 16 -43 45 -21 62 9 7 17
23 19 36 2 18 10 25 32 27 16 2 33 9 37 16 6 9 9 9 9 1 0 -6 -4 -14 -10 -18
-10 -6 -3 -35 9 -35 4 0 24 29 43 65 27 48 33 65 22 65 -9 0 -22 7 -30 15 -9
8 -21 15 -27 14 -9 0 -8 -2 1 -6 14 -5 17 -33 3 -33 -13 0 -24 51 -12 63 6 6
18 1 34 -17 13 -14 28 -26 32 -26 4 0 24 16 44 35 20 20 44 43 54 53 31 29 88
130 93 164 5 31 3 34 -41 52 -25 10 -53 26 -62 35 -9 9 -21 16 -26 16 -6 0
-12 6 -15 13 -2 6 1 12 6 12 6 0 13 13 17 29 3 16 13 32 21 35 8 3 14 14 14
26 0 14 6 20 23 19 12 0 36 2 54 5 22 3 33 0 37 -10 14 -35 66 13 66 61 0 8 4
23 10 33 5 9 21 58 36 107 15 50 40 116 55 147 16 32 29 64 29 71 0 8 7 20 15
27 8 7 15 20 15 30 0 9 9 27 20 40 11 13 20 28 20 35 0 6 12 23 28 37 41 39
70 76 77 98 4 11 14 20 22 20 31 0 168 141 168 172 0 16 7 21 27 22 29 2 67
40 68 69 0 10 6 20 14 23 26 10 66 78 60 102 -5 16 -2 22 10 22 9 0 16 8 16
19 0 11 5 23 11 26 6 4 10 19 9 33 -4 49 0 59 12 38 10 -18 12 -18 23 -2 14
18 1 61 -20 69 -5 2 0 3 11 1 29 -5 37 20 13 42 -22 20 -25 44 -5 44 7 0 19 7
26 15 10 11 9 18 -4 30 -19 20 -21 55 -3 55 8 0 22 9 32 20 17 19 18 19 37 -6
13 -16 18 -34 15 -51 l-5 -27 19 25 c10 13 19 29 20 34 2 22 180 174 233 200
31 15 56 34 56 42 0 11 11 14 48 13 144 -7 146 -7 222 71 58 58 81 74 137 94
38 13 106 38 153 55 47 17 135 47 195 66 61 20 135 44 165 54 30 10 91 28 135
39 44 11 121 32 170 46 95 26 409 106 435 110 8 1 22 5 30 8 8 3 47 10 85 16
102 17 142 25 165 34 8 3 33 8 55 10 22 3 103 16 180 30 330 60 843 114 1225
127 213 8 651 5 825 -6z m-4140 -724 c-3 -5 -14 -10 -23 -9 -14 0 -13 2 3 9
27 11 27 11 20 0z m-444 -213 c-13 -13 -26 -3 -16 12 3 6 11 8 17 5 6 -4 6
-10 -1 -17z m-72 -53 c-6 -7 -15 -11 -21 -8 -5 3 -4 12 3 20 6 7 15 11 21 8 5
-3 4 -12 -3 -20z m8512 -67 c-13 -13 -26 -3 -16 12 3 6 11 8 17 5 6 -4 6 -10
-1 -17z m-8701 3 c0 -5 -4 -10 -10 -10 -5 0 -10 5 -10 10 0 6 5 10 10 10 6 0
10 -4 10 -10z m57 -22 c-3 -8 -6 -5 -6 6 -1 11 2 17 5 13 3 -3 4 -12 1 -19z
m49 -5 c-10 -10 -19 5 -10 18 6 11 8 11 12 0 2 -7 1 -15 -2 -18z m-46 -43 c0
-5 -4 -10 -9 -10 -6 0 -13 5 -16 10 -3 6 1 10 9 10 9 0 16 -4 16 -10z m70 -64
c0 -3 -4 -8 -10 -11 -5 -3 -10 -1 -10 4 0 6 5 11 10 11 6 0 10 -2 10 -4z m-50
-36 c0 -5 -2 -10 -4 -10 -3 0 -8 5 -11 10 -3 6 -1 10 4 10 6 0 11 -4 11 -10z
m-110 -85 c0 -8 -5 -17 -12 -21 -7 -4 -8 -3 -4 4 4 7 3 12 -3 12 -6 0 -8 7 -5
15 7 17 24 10 24 -10z m70 -15 c7 -17 10 -34 6 -37 -9 -9 -35 28 -36 50 0 27
16 20 30 -13z m-550 -85 c0 -7 -7 -15 -15 -19 -15 -5 -22 24 -9 37 9 9 24 -2
24 -18z m9730 -2 c0 -25 -1 -26 -16 -11 -9 9 -13 21 -10 27 13 20 26 11 26
-16z m-9510 -113 c0 -5 -7 -10 -16 -10 -8 0 -12 5 -9 10 3 6 10 10 16 10 5 0
9 -4 9 -10z m190 -29 c0 -12 -20 -25 -27 -18 -7 7 6 27 18 27 5 0 9 -4 9 -9z
m-280 -91 c-10 -18 -14 -20 -21 -9 -6 9 -3 18 8 26 22 17 27 10 13 -17z m57
24 c-3 -3 -12 -4 -19 -1 -8 3 -5 6 6 6 11 1 17 -2 13 -5z m-507 -19 c0 -8 -4
-15 -10 -15 -5 0 -10 7 -10 15 0 8 5 15 10 15 6 0 10 -7 10 -15z m10360 0 c0
-8 -4 -15 -10 -15 -5 0 -10 7 -10 15 0 8 5 15 10 15 6 0 10 -7 10 -15z
m-10520 1 c0 -3 -4 -8 -10 -11 -5 -3 -10 -1 -10 4 0 6 5 11 10 11 6 0 10 -2
10 -4z m480 0 c0 -3 -4 -8 -10 -11 -5 -3 -10 -1 -10 4 0 6 5 11 10 11 6 0 10
-2 10 -4z m195 -6 c10 -16 -3 -29 -25 -23 -16 4 -18 8 -9 19 14 17 25 18 34 4z
m10010 0 c-3 -5 -10 -10 -16 -10 -5 0 -9 5 -9 10 0 6 7 10 16 10 8 0 12 -4 9
-10z m-10297 -18 c2 -7 -3 -12 -12 -12 -9 0 -16 7 -16 16 0 17 22 14 28 -4z
m9912 3 c0 -8 -7 -15 -15 -15 -16 0 -20 12 -8 23 11 12 23 8 23 -8z m-9545
-15 c7 -12 -61 -43 -75 -35 -20 12 -10 27 14 21 16 -4 26 -1 30 9 6 17 22 20
31 5z m-114 -30 c5 0 9 -4 9 -10 0 -5 -7 -10 -15 -10 -10 0 -15 9 -14 28 1 16
3 20 6 10 2 -10 9 -18 14 -18z m-401 -20 c0 -5 -8 -10 -17 -10 -15 0 -16 2 -3
10 19 12 20 12 20 0z m-80 -9 c0 -6 -4 -13 -10 -16 -5 -3 -10 1 -10 9 0 9 5
16 10 16 6 0 10 -4 10 -9z m10287 3 c-3 -3 -12 -4 -19 -1 -8 3 -5 6 6 6 11 1
17 -2 13 -5z m73 -4 c0 -5 -4 -10 -10 -10 -5 0 -10 5 -10 10 0 6 5 10 10 10 6
0 10 -4 10 -10z m-9802 -42 c-4 -30 -43 -37 -51 -9 -5 19 0 22 46 30 5 0 7 -9
5 -21z m-67 -13 c-1 -15 -24 -12 -29 3 -3 9 2 13 12 10 10 -1 17 -7 17 -13z
m39 -45 c0 -5 -4 -10 -10 -10 -5 0 -10 5 -10 10 0 6 5 10 10 10 6 0 10 -4 10
-10z m-34 -21 c3 -6 2 -15 -2 -19 -12 -12 -38 5 -30 19 9 14 23 14 32 0z m-66
-38 c0 -10 -30 -24 -37 -17 -3 3 -2 9 2 15 8 13 35 15 35 2z m30 5 c0 -3 -4
-8 -10 -11 -5 -3 -10 -1 -10 4 0 6 5 11 10 11 6 0 10 -2 10 -4z m10105 -16 c3
-5 1 -10 -4 -10 -6 0 -11 5 -11 10 0 6 2 10 4 10 3 0 8 -4 11 -10z m-10190
-61 c4 -6 -1 -16 -11 -23 -9 -7 -14 -18 -10 -24 7 -12 -2 -42 -14 -42 -4 0
-17 9 -30 20 -27 23 -21 55 9 45 13 -4 20 0 24 15 6 22 22 26 32 9z m-616 -63
c12 -14 5 -46 -10 -46 -5 0 -9 3 -9 8 0 4 -3 17 -6 30 -7 25 7 29 25 8z
m10845 -20 c-3 -14 -10 -26 -15 -26 -14 0 -11 48 4 53 17 6 19 3 11 -27z
m-10774 -10 c0 -3 -4 -8 -10 -11 -5 -3 -10 -1 -10 4 0 6 5 11 10 11 6 0 10 -2
10 -4z m10705 -6 c3 -5 -1 -10 -9 -10 -9 0 -16 5 -16 10 0 6 4 10 9 10 6 0 13
-4 16 -10z m-10700 -50 c-3 -5 -12 -10 -20 -10 -8 0 -17 5 -20 10 -4 6 5 10
20 10 15 0 24 -4 20 -10z m257 -22 c-9 -9 -12 -7 -12 12 0 19 3 21 12 12 9 -9
9 -15 0 -24z m10458 22 c0 -5 -9 -10 -19 -10 -11 0 -23 5 -26 10 -4 6 5 10 19
10 14 0 26 -4 26 -10z m-10460 -80 c0 -11 -39 -20 -45 -11 -2 4 -1 17 2 30 5
21 7 21 24 5 11 -9 19 -20 19 -24z m-80 -24 c0 -18 -17 -29 -30 -21 -8 5 -7
11 1 21 15 18 29 18 29 0z m-75 -45 c-9 -16 -25 -3 -18 15 4 10 9 12 15 6 6
-6 7 -15 3 -21z m91 -16 c-3 -8 -1 -15 4 -15 13 0 13 -27 -1 -35 -16 -10 -59
4 -59 19 0 13 37 44 54 45 4 1 6 -6 2 -14z m175 -21 c12 -14 11 -16 -5 -13
-11 2 -21 10 -24 17 -5 17 13 15 29 -4z m-101 2 c0 -3 -4 -8 -10 -11 -5 -3
-10 -1 -10 4 0 6 5 11 10 11 6 0 10 -2 10 -4z m-180 -16 c0 -5 -4 -10 -10 -10
-5 0 -10 5 -10 10 0 6 5 10 10 10 6 0 10 -4 10 -10z m60 -47 c0 -13 -3 -13
-15 -3 -8 7 -12 16 -9 21 8 13 24 1 24 -18z m113 -104 c-19 -32 -34 -36 -53
-14 -18 22 -8 50 18 48 12 -2 22 2 22 8 0 8 5 8 15 -1 13 -11 13 -16 -2 -41z
m-176 -40 c22 -8 24 -12 13 -19 -34 -22 -91 -6 -75 20 8 13 27 13 62 -1z m91
-11 c-6 -18 -28 -21 -28 -4 0 9 7 16 16 16 9 0 14 -5 12 -12z m-38 -35 c0 -13
-3 -13 -15 -3 -8 7 -12 16 -9 21 8 13 24 1 24 -18z m-176 -2 c8 -13 -4 -42
-15 -35 -12 7 -12 44 0 44 6 0 12 -4 15 -9z m100 -16 c-4 -8 -11 -12 -16 -9
-6 4 -5 10 3 15 19 12 19 11 13 -6z m96 -25 c0 -5 9 -10 19 -10 27 0 33 -14
16 -36 -14 -18 -16 -18 -29 -1 -7 9 -18 17 -25 17 -6 0 -11 9 -11 20 0 11 7
20 15 20 8 0 15 -4 15 -10z m-147 -17 c-7 -2 -19 -2 -25 0 -7 3 -2 5 12 5 14
0 19 -2 13 -5z m-133 -7 c0 -3 -4 -8 -10 -11 -5 -3 -10 -1 -10 4 0 6 5 11 10
11 6 0 10 -2 10 -4z m10940 -6 c0 -5 -2 -10 -4 -10 -3 0 -8 5 -11 10 -3 6 -1
10 4 10 6 0 11 -4 11 -10z m-10580 -24 c0 -3 -4 -8 -10 -11 -5 -3 -10 -1 -10
4 0 6 5 11 10 11 6 0 10 -2 10 -4z m-420 -31 c0 -8 -4 -15 -10 -15 -5 0 -10 7
-10 15 0 8 5 15 10 15 6 0 10 -7 10 -15z m11060 0 c0 -8 -4 -15 -9 -15 -13 0
-22 16 -14 24 11 11 23 6 23 -9z m-10930 -15 c0 -11 -4 -20 -9 -20 -11 0 -22
26 -14 34 12 12 23 5 23 -14z m147 -56 c-9 -9 -28 6 -21 18 4 6 10 6 17 -1 6
-6 8 -13 4 -17z m-185 1 c0 -5 -5 -11 -11 -13 -6 -2 -11 4 -11 13 0 9 5 15 11
13 6 -2 11 -8 11 -13z m48 -115 c0 -5 -4 -10 -10 -10 -5 0 -10 5 -10 10 0 6 5
10 10 10 6 0 10 -4 10 -10z m-164 -26 c-3 -8 0 -14 7 -14 7 0 4 -5 -6 -11 -10
-6 -21 -9 -23 -6 -9 9 8 57 18 51 5 -3 7 -12 4 -20z m11112 -9 c0 -14 -4 -25
-8 -25 -10 0 -21 41 -14 52 9 15 22 -1 22 -27z m-10860 -19 c2 -10 -1 -23 -6
-28 -12 -12 -36 27 -27 43 10 15 29 5 33 -15z m10797 -106 c3 -5 1 -10 -4 -10
-6 0 -11 5 -11 10 0 6 2 10 4 10 3 0 8 -4 11 -10z m-10935 -70 c6 -11 21 -20
33 -21 21 0 21 -1 2 -9 -11 -5 -25 -9 -32 -9 -18 -1 -43 28 -37 44 8 21 21 19
34 -5z m-45 -60 c-3 -5 -10 -10 -16 -10 -5 0 -9 5 -9 10 0 6 7 10 16 10 8 0
12 -4 9 -10z m-71 -211 c-8 -14 -24 -10 -24 6 0 9 6 12 15 9 8 -4 12 -10 9
-15z m148 -24 c6 -29 -7 -34 -15 -6 -4 17 0 31 9 31 1 0 4 -11 6 -25z m-187
-15 c-5 -8 -11 -8 -17 -2 -6 6 -7 16 -3 22 5 8 11 8 17 2 6 -6 7 -16 3 -22z
m130 20 c4 -6 11 -8 16 -5 5 4 9 -1 9 -10 0 -11 -4 -13 -12 -8 -7 4 -17 8 -22
8 -5 0 -11 6 -13 13 -5 14 13 16 22 2z m-5 -51 c0 10 4 11 13 3 6 -6 16 -10
22 -10 5 0 11 -6 13 -12 3 -7 -9 -9 -32 -7 -41 4 -51 11 -41 27 6 9 10 9 16
-1 7 -12 9 -12 9 0z m84 -4 c-6 -16 -24 -21 -24 -7 0 11 11 22 21 22 5 0 6 -7
3 -15z m-104 -110 c16 -29 7 -43 -15 -25 -16 13 -21 50 -7 50 5 0 15 -11 22
-25z m-70 -250 c0 -8 -4 -15 -10 -15 -5 0 -10 7 -10 15 0 8 5 15 10 15 6 0 10
-7 10 -15z m167 9 c-3 -3 -12 -4 -19 -1 -8 3 -5 6 6 6 11 1 17 -2 13 -5z
m-177 -54 c0 -5 -4 -10 -9 -10 -6 0 -13 5 -16 10 -3 6 1 10 9 10 9 0 16 -4 16
-10z m-110 -132 c0 -14 -5 -18 -16 -14 -9 3 -25 6 -35 6 -11 0 -18 4 -14 10 3
5 12 7 20 3 8 -3 15 0 15 6 0 6 -6 11 -12 11 -9 0 -8 3 2 10 18 11 40 -6 40
-32z m153 -40 c-4 -23 -8 -26 -24 -17 -25 13 -24 29 1 29 11 0 20 5 20 12 0 6
2 9 4 7 2 -2 2 -16 -1 -31z m-213 2 c0 -5 -4 -10 -10 -10 -5 0 -10 5 -10 10 0
6 5 10 10 10 6 0 10 -4 10 -10z m-50 -16 c0 -8 -5 -12 -10 -9 -6 4 -8 11 -5
16 9 14 15 11 15 -7z m130 6 c0 -5 -7 -10 -16 -10 -8 0 -12 5 -9 10 3 6 10 10
16 10 5 0 9 -4 9 -10z m11450 -4 c0 -3 -4 -8 -10 -11 -5 -3 -10 -1 -10 4 0 6
5 11 10 11 6 0 10 -2 10 -4z m-11550 -216 c0 -5 -7 -10 -16 -10 -8 0 -12 5 -9
10 3 6 10 10 16 10 5 0 9 -4 9 -10z m-40 -10 c0 -5 -4 -10 -10 -10 -5 0 -10 5
-10 10 0 6 5 10 10 10 6 0 10 -4 10 -10z m30 -40 c0 -5 -5 -10 -11 -10 -5 0
-7 5 -4 10 3 6 8 10 11 10 2 0 4 -4 4 -10z m-35 -10 c-3 -5 -10 -10 -16 -10
-5 0 -9 5 -9 10 0 6 7 10 16 10 8 0 12 -4 9 -10z m130 -10 c3 -5 1 -10 -4 -10
-6 0 -11 5 -11 10 0 6 2 10 4 10 3 0 8 -4 11 -10z m-56 -29 c9 -6 10 -11 2
-15 -13 -8 -31 1 -31 15 0 11 11 11 29 0z m38 -91 c10 0 13 -6 9 -16 -5 -13
-2 -15 13 -11 11 3 25 -1 32 -9 9 -12 5 -14 -28 -14 -33 0 -42 4 -52 26 -6 14
-8 31 -4 37 5 8 8 8 11 -1 2 -7 11 -12 19 -12z m10 -258 c8 -5 10 -21 6 -45
-5 -31 -10 -37 -29 -37 -14 0 -24 6 -24 14 0 10 -9 12 -42 6 -48 -9 -53 -7
-45 13 3 8 16 13 30 12 20 -3 24 1 20 19 -4 20 -4 20 10 4 8 -10 21 -18 29
-18 8 0 19 -5 26 -12 9 -9 12 -9 12 0 0 7 -4 12 -10 12 -5 0 -10 9 -10 20 0
21 7 25 27 12z m-74 -85 c4 3 7 2 7 -4 0 -15 -11 -22 -26 -16 -8 3 -14 12 -14
20 0 12 3 13 13 4 8 -6 17 -8 20 -4z m-43 -22 c0 -8 -4 -15 -10 -15 -5 0 -10
7 -10 15 0 8 5 15 10 15 6 0 10 -7 10 -15z m60 -40 c0 -8 -4 -15 -10 -15 -5 0
-10 7 -10 15 0 8 5 15 10 15 6 0 10 -7 10 -15z m46 -13 c-3 -3 -1 -11 5 -18
14 -17 4 -44 -16 -44 -11 0 -15 11 -15 40 0 31 3 38 15 33 9 -3 13 -8 11 -11z
m-18 -160 c2 -7 -5 -12 -17 -12 -14 0 -19 5 -14 15 6 17 25 15 31 -3z m-298
-142 c0 -5 -4 -10 -9 -10 -6 0 -13 5 -16 10 -3 6 1 10 9 10 9 0 16 -4 16 -10z
m12025 0 c-3 -5 -10 -10 -16 -10 -5 0 -9 5 -9 10 0 6 7 10 16 10 8 0 12 -4 9
-10z m21 -57 c-10 -10 -19 5 -10 18 6 11 8 11 12 0 2 -7 1 -15 -2 -18z
m-12076 7 c0 -5 -4 -10 -10 -10 -5 0 -10 5 -10 10 0 6 5 10 10 10 6 0 10 -4
10 -10z m240 -260 c0 -5 -5 -10 -11 -10 -5 0 -7 5 -4 10 3 6 8 10 11 10 2 0 4
-4 4 -10z m-275 -30 c3 -5 1 -10 -4 -10 -6 0 -11 5 -11 10 0 6 2 10 4 10 3 0
8 -4 11 -10z m12145 0 c0 -5 -5 -10 -11 -10 -5 0 -7 5 -4 10 3 6 8 10 11 10 2
0 4 -4 4 -10z m-12035 -81 c10 -14 1 -21 -19 -13 -9 3 -13 10 -10 15 7 12 21
11 29 -2z m95 -69 c0 -5 -4 -10 -10 -10 -5 0 -10 5 -10 10 0 6 5 10 10 10 6 0
10 -4 10 -10z m90 -34 c-6 -6 -15 -5 -25 4 -12 10 -13 16 -3 27 10 13 14 12
25 -3 8 -11 10 -21 3 -28z m-100 -77 c0 -20 -15 -26 -25 -9 -9 15 3 43 15 35
5 -3 10 -15 10 -26z m-45 -259 c3 -6 -1 -7 -9 -4 -18 7 -21 14 -7 14 6 0 13
-4 16 -10z m43 -69 c11 -7 10 -10 -3 -15 -19 -7 -35 0 -35 15 0 11 20 12 38 0z
m-100 -94 c2 -12 -1 -15 -12 -11 -19 7 -22 38 -3 32 6 -3 13 -12 15 -21z m82
-1 c0 -21 -21 -31 -30 -15 -5 7 -6 17 -4 21 9 14 34 9 34 -6z m-270 -56 c0
-13 -7 -20 -19 -20 -25 0 -38 20 -20 31 23 15 39 10 39 -11z m175 11 c3 -5 1
-12 -5 -16 -5 -3 -10 1 -10 9 0 18 6 21 15 7z m12185 -1 c13 -9 12 -12 -4 -25
-23 -17 -42 -5 -33 19 7 18 16 20 37 6z m-12150 -74 c0 -3 -7 -6 -15 -6 -9 0
-15 9 -15 21 0 18 2 19 15 5 8 -8 15 -17 15 -20z m-104 13 c3 -6 1 -16 -5 -22
-8 -8 -6 -16 5 -28 20 -22 9 -42 -18 -33 -19 6 -20 3 -14 -30 6 -32 5 -36 -14
-36 -11 0 -20 4 -20 10 0 5 -9 18 -21 29 -12 11 -18 25 -14 31 4 7 -1 14 -14
17 -26 7 -28 33 -2 33 10 0 21 6 24 14 3 8 21 16 39 19 18 2 36 5 40 5 4 1 10
-3 14 -9z m184 -4 c10 -12 10 -15 -4 -15 -9 0 -16 7 -16 15 0 8 2 15 4 15 2 0
9 -7 16 -15z m11991 5 c19 0 29 -5 29 -15 0 -8 9 -15 20 -15 27 0 26 -26 -1
-33 -13 -4 -18 -10 -13 -18 4 -7 1 -17 -8 -23 -8 -6 -17 -19 -21 -29 -11 -30
-41 -17 -42 18 0 22 -4 29 -17 27 -24 -4 -32 17 -14 37 11 12 13 20 5 28 -15
15 -1 36 18 29 8 -3 28 -6 44 -6z m-12061 -80 c0 -11 5 -22 10 -25 12 -8 13
-45 1 -64 -8 -12 -12 -12 -25 -2 -9 8 -16 10 -16 5 0 -4 -6 1 -14 11 -10 14
-11 25 -5 38 6 9 7 22 4 27 -3 6 -8 19 -10 29 -3 17 0 18 26 9 18 -6 29 -17
29 -28z m160 -2 c0 -4 0 -11 0 -15 0 -5 -9 -9 -20 -9 -12 -1 -20 5 -20 15 0
10 8 17 20 17 11 0 20 -4 20 -8z m-250 -42 c0 -3 -4 -8 -10 -11 -5 -3 -10 -1
-10 4 0 6 5 11 10 11 6 0 10 -2 10 -4z m12080 -6 c0 -5 -2 -10 -4 -10 -3 0 -8
5 -11 10 -3 6 -1 10 4 10 6 0 11 -4 11 -10z m-12020 -80 c0 -5 -7 -10 -15 -10
-8 0 -15 5 -15 10 0 6 7 10 15 10 8 0 15 -4 15 -10z m144 -141 c-8 -13 -24 -1
-24 18 0 13 3 13 15 3 8 -7 12 -16 9 -21z m-174 -49 c0 -5 -2 -10 -4 -10 -3 0
-8 5 -11 10 -3 6 -1 10 4 10 6 0 11 -4 11 -10z m86 -30 c-1 -16 -5 -30 -11
-30 -5 0 -10 3 -11 8 0 4 -4 15 -9 26 -5 12 -3 21 6 26 19 13 26 4 25 -30z
m-86 -24 c0 -3 -4 -8 -10 -11 -5 -3 -10 -1 -10 4 0 6 5 11 10 11 6 0 10 -2 10
-4z m180 -31 c0 -8 -4 -15 -9 -15 -13 0 -22 16 -14 24 11 11 23 6 23 -9z
m-280 -35 c0 -5 -4 -10 -10 -10 -5 0 -10 5 -10 10 0 6 5 10 10 10 6 0 10 -4
10 -10z m49 -12 c0 -7 -4 -22 -8 -33 -7 -17 -9 -15 -13 13 -3 22 -1 32 9 32 7
0 13 -6 12 -12z m-79 -25 c0 -14 -19 -38 -25 -32 -8 8 5 39 16 39 5 0 9 -3 9
-7z m260 -17 c0 -2 3 -11 6 -20 5 -12 0 -16 -17 -16 -22 0 -59 -25 -59 -40 0
-16 45 -19 61 -4 16 14 18 14 28 -4 21 -39 -50 -82 -79 -47 -18 22 -29 19 -40
-11 -6 -14 -15 -22 -20 -19 -8 5 -7 11 0 20 7 8 9 19 5 24 -6 11 -4 15 40 65
14 16 25 32 25 37 0 4 8 10 18 12 26 7 32 7 32 3z m-243 -62 c-3 -3 -12 -4
-19 -1 -8 3 -5 6 6 6 11 1 17 -2 13 -5z m-22 -44 c-5 -8 -11 -8 -17 -2 -6 6
-7 16 -3 22 5 8 11 8 17 2 6 -6 7 -16 3 -22z m112 -16 c1 -5 -2 -16 -7 -24
-12 -20 -35 2 -26 25 6 17 27 16 33 -1z m-25 -74 c-1 -13 -10 -28 -18 -35 -15
-11 -15 -14 1 -39 14 -20 15 -26 4 -24 -17 4 -19 -24 -2 -29 6 -2 14 5 18 16
5 16 15 21 40 21 18 0 36 6 38 13 3 7 6 5 6 -5 1 -9 -9 -24 -21 -32 -16 -11
-21 -25 -20 -52 1 -33 -1 -36 -21 -30 -16 4 -27 -1 -39 -17 -15 -20 -19 -21
-40 -8 -16 10 -23 10 -26 2 -6 -19 -22 -1 -22 25 0 14 -4 23 -9 19 -18 -10
-21 13 -6 41 9 17 11 30 5 32 -15 5 -12 29 5 36 8 3 15 12 15 20 0 17 71 77
85 72 6 -2 9 -14 7 -26z m178 -12 c0 -4 -7 -8 -15 -8 -10 0 -15 10 -15 28 1
26 1 26 15 8 8 -11 15 -23 15 -28z m30 2 c0 -5 -5 -10 -11 -10 -5 0 -7 5 -4
10 3 6 8 10 11 10 2 0 4 -4 4 -10z m-92 -181 c-2 -6 -8 -10 -13 -10 -5 0 -11
4 -13 10 -2 6 4 11 13 11 9 0 15 -5 13 -11z m-133 -70 c-8 -12 -35 -12 -35 0
0 11 22 20 33 14 4 -2 5 -9 2 -14z m128 -21 c-3 -16 -9 -28 -14 -28 -4 0 -6
12 -5 28 2 15 4 31 5 37 1 6 4 6 10 0 5 -6 7 -22 4 -37z m-187 18 c14 -11 16
-18 8 -26 -15 -15 -44 -2 -44 21 0 23 9 24 36 5z m4 -56 c0 -5 -7 -10 -16 -10
-8 0 -12 5 -9 10 3 6 10 10 16 10 5 0 9 -4 9 -10z m58 -11 c-2 -6 -8 -10 -13
-10 -5 0 -11 4 -13 10 -2 6 4 11 13 11 9 0 15 -5 13 -11z m172 -119 c0 -5 -4
-10 -10 -10 -5 0 -10 5 -10 10 0 6 5 10 10 10 6 0 10 -4 10 -10z m-30 -40 c0
-5 -4 -10 -10 -10 -5 0 -10 5 -10 10 0 6 5 10 10 10 6 0 10 -4 10 -10z m140
-5 c0 -9 -6 -12 -15 -9 -8 4 -15 10 -15 15 0 5 7 9 15 9 8 0 15 -7 15 -15z
m-59 -10 c0 -5 -9 -11 -21 -13 -20 -3 -27 8 -13 22 10 9 34 3 34 -9z m99 -31
c0 -9 -5 -14 -12 -12 -18 6 -21 28 -4 28 9 0 16 -7 16 -16z m-347 -16 c6 -19
-3 -38 -18 -38 -13 0 -27 35 -17 44 10 10 30 6 35 -6z m12211 -10 c-9 -32 -12
-34 -30 -16 -19 19 -11 38 17 38 16 0 19 -4 13 -22z m-11904 -4 c0 -8 -5 -12
-10 -9 -6 4 -8 11 -5 16 9 14 15 11 15 -7z m-240 -45 c0 -5 -4 -9 -10 -9 -5 0
-10 7 -10 16 0 8 5 12 10 9 6 -3 10 -10 10 -16z m-83 -41 c-3 -8 -6 -5 -6 6
-1 11 2 17 5 13 3 -3 4 -12 1 -19z m12210 0 c-3 -8 -6 -5 -6 6 -1 11 2 17 5
13 3 -3 4 -12 1 -19z m-12162 -1008 c4 -6 1 -18 -6 -26 -11 -14 -13 -14 -21 0
-15 26 12 51 27 26z m-61 -49 c8 -12 -21 -34 -34 -26 -17 11 -11 35 9 35 11 0
22 -4 25 -9z m12276 -5 c0 -22 -19 -29 -36 -15 -12 10 -12 14 -2 20 20 13 38
10 38 -5z m-75 -517 c4 -6 5 -12 2 -15 -7 -7 -37 7 -37 17 0 13 27 11 35 -2z
m-138 -191 c-3 -8 -6 -5 -6 6 -1 11 2 17 5 13 3 -3 4 -12 1 -19z m100 -14 c-3
-3 -12 -4 -19 -1 -8 3 -5 6 6 6 11 1 17 -2 13 -5z m3 -184 c0 -5 -8 -10 -17
-10 -15 0 -16 2 -3 10 19 12 20 12 20 0z m-103 -32 c-3 -8 -6 -5 -6 6 -1 11 2
17 5 13 3 -3 4 -12 1 -19z m132 -27 c9 -6 10 -11 2 -15 -6 -4 -9 -12 -5 -17 3
-5 0 -16 -6 -24 -10 -12 -10 -18 0 -30 17 -20 -6 -51 -25 -35 -7 6 -25 8 -39
4 -22 -5 -26 -3 -26 16 0 17 4 20 20 15 31 -10 24 8 -11 28 -39 22 -33 38 17
54 49 14 56 15 73 4z m6 -152 c-8 -12 -35 -12 -35 0 0 11 22 20 33 14 4 -2 5
-9 2 -14z m-38 -351 c-3 -8 -6 -5 -6 6 -1 11 2 17 5 13 3 -3 4 -12 1 -19z m10
-50 c-3 -7 -5 -2 -5 12 0 14 2 19 5 13 2 -7 2 -19 0 -25z m-12222 -333 c33
-113 41 -159 14 -80 -39 113 -49 170 -54 295 l-4 125 9 -125 c6 -83 18 -155
35 -215z m12230 260 c-5 -35 -4 -55 3 -55 13 0 23 -26 16 -44 -3 -8 -11 -13
-18 -10 -9 3 -19 -13 -30 -48 -9 -29 -14 -39 -11 -23 3 17 9 55 15 85 5 30 12
76 15 103 3 26 9 47 11 47 3 0 2 -25 -1 -55z m93 -38 c2 -11 -3 -17 -16 -17
-26 0 -34 11 -20 27 14 17 32 12 36 -10z m-151 -229 c-3 -8 -6 -5 -6 6 -1 11
2 17 5 13 3 -3 4 -12 1 -19z m-10 -50 c-3 -7 -5 -2 -5 12 0 14 2 19 5 13 2 -7
2 -19 0 -25z m6 -48 c6 0 3 -6 -7 -13 -33 -24 -30 -157 3 -157 4 0 7 10 8 21
3 32 21 47 29 25 4 -11 1 -22 -7 -27 -10 -7 -11 -11 -2 -17 11 -7 18 -39 15
-75 -2 -16 -8 -18 -42 -12 -33 6 -40 4 -40 -10 0 -9 9 -19 20 -22 11 -3 20 -9
20 -14 0 -5 -9 -9 -20 -9 -17 0 -20 -7 -20 -42 1 -45 14 -70 42 -81 20 -7 35
-56 21 -66 -17 -11 -23 -41 -8 -41 7 0 17 5 20 10 13 21 25 9 25 -26 0 -36
-33 -104 -50 -104 -5 0 -14 9 -20 20 -15 27 -26 25 -39 -7 -8 -22 -9 -14 -4
37 4 36 6 94 5 130 -3 232 -2 294 7 299 6 4 6 12 1 20 -9 15 -6 50 13 141 6
30 12 47 15 38 2 -10 8 -18 15 -18z m-12104 -100 c0 -8 -6 0 -14 19 -8 18 -15
36 -15 40 1 13 29 -45 29 -59z m12171 -15 c0 -8 -4 -15 -10 -15 -5 0 -10 7
-10 15 0 8 5 15 10 15 6 0 10 -7 10 -15z m-12119 -111 c63 -156 61 -197 -13
-259 -18 -15 -41 -39 -50 -54 -10 -14 -18 -21 -18 -15 0 7 23 36 51 65 83 88
84 103 19 265 -22 53 -40 100 -40 102 0 16 17 -18 51 -104z m-95 -376 c-9 -12
-16 -19 -16 -15 0 11 24 47 28 42 2 -2 -3 -14 -12 -27z m-25 -93 c-5 -33 -9
-152 -10 -265 -1 -112 -4 -207 -8 -210 -8 -8 3 502 12 523 13 30 15 14 6 -48z
m12118 -11 c-15 -18 -1 -54 21 -54 24 0 35 -17 21 -33 -12 -15 23 -42 41 -31
7 5 9 0 6 -14 -4 -14 2 -27 19 -42 14 -12 22 -28 19 -35 -3 -8 -1 -17 4 -20
16 -10 11 -43 -7 -53 -21 -12 -92 11 -110 35 -7 9 -13 29 -13 44 0 38 -10 59
-27 59 -10 0 -13 6 -8 18 3 9 9 47 12 84 4 51 9 65 20 61 10 -4 11 -9 2 -19z
m158 -46 c-3 -8 -6 -5 -6 6 -1 11 2 17 5 13 3 -3 4 -12 1 -19z m-59 -36 c2 -7
-3 -12 -12 -12 -9 0 -16 7 -16 16 0 17 22 14 28 -4z m72 -21 c0 -5 3 -16 6
-25 4 -11 0 -16 -14 -16 -27 0 -37 17 -22 35 14 17 30 20 30 6z m-219 -221
c-7 -120 -8 -130 -10 -59 -1 80 8 213 15 207 1 -2 -1 -69 -5 -148z m39 124 c0
-8 -4 -12 -10 -9 -5 3 -10 10 -10 16 0 5 5 9 10 9 6 0 10 -7 10 -16z m60 -84
c8 -5 11 -12 7 -16 -4 -4 -15 0 -24 9 -18 18 -8 23 17 7z m90 -71 c0 -5 -7 -9
-15 -9 -15 0 -20 12 -9 23 8 8 24 -1 24 -14z m55 -19 c-4 -11 -2 -20 4 -20 6
0 11 -11 11 -24 0 -22 -2 -23 -25 -13 -27 13 -31 22 -15 32 6 4 8 15 5 26 -5
13 -2 19 10 19 12 0 15 -6 10 -20z m-187 -30 c1 -30 -12 -48 -22 -31 -6 9 9
61 17 61 2 0 4 -13 5 -30z m142 -19 c0 -5 -7 -11 -15 -15 -15 -5 -20 5 -8 17
9 10 23 9 23 -2z m-2190 -102 l66 -71 33 31 c32 30 65 39 86 23 6 -4 23 -27
40 -52 16 -25 54 -76 84 -113 l53 -69 37 35 c45 44 85 61 111 47 11 -6 39 -41
63 -78 65 -100 59 -97 216 -97 l136 0 0 -205 0 -205 -210 -7 c-115 -5 -419 -7
-675 -5 l-465 2 -3 165 c-1 90 -7 169 -12 174 -15 15 -12 40 8 57 32 27 41 30
61 20 17 -9 29 8 119 172 56 100 104 191 108 202 12 34 25 45 53 45 20 0 42
-17 91 -71z m2225 57 c11 5 15 -1 15 -21 0 -14 4 -24 9 -20 16 10 22 -13 9
-35 -10 -16 -10 -24 -1 -40 11 -16 10 -21 -7 -30 -11 -6 -20 -16 -20 -24 0
-13 -66 -76 -80 -76 -14 0 -24 24 -12 28 6 2 8 10 5 18 -3 8 1 14 10 14 25 0
31 20 11 35 -15 12 -16 16 -5 24 8 5 11 16 6 30 -4 15 -1 29 11 42 9 10 14 22
10 26 -10 10 -24 -8 -39 -52 -12 -36 -18 -40 -50 -43 -42 -4 -45 0 -17 28 15
15 18 27 13 51 -6 30 -5 32 20 25 20 -5 30 -2 39 13 9 15 17 17 35 10 12 -4
30 -6 38 -3z m-228 -68 c-2 -13 -4 -3 -4 22 0 25 2 35 4 23 2 -13 2 -33 0 -45z
m53 41 c0 -5 -7 -9 -15 -9 -9 0 -12 6 -9 15 6 15 24 11 24 -6z m-12159 -143
c-29 -209 -21 -446 20 -634 9 -41 7 -46 -21 -78 -16 -19 -32 -47 -35 -62 -4
-15 -11 -46 -17 -68 -11 -45 3 -134 29 -187 8 -16 13 -31 10 -33 -6 -7 -35 66
-47 123 -16 72 9 190 51 234 26 28 28 34 20 72 -25 114 -43 316 -38 426 7 137
30 346 35 312 2 -13 -1 -60 -7 -105z m12125 -18 c-3 -16 -1 -50 5 -74 9 -36
14 -42 25 -33 8 6 14 18 14 25 0 8 7 14 15 14 17 0 20 -16 5 -25 -5 -3 -7 -12
-3 -20 3 -8 0 -15 -6 -15 -6 0 -11 -6 -11 -12 0 -7 -20 -35 -44 -61 l-43 -48
11 50 c5 28 13 46 17 40 4 -7 12 -8 18 -5 16 10 14 26 -4 26 -12 0 -15 18 -15
103 1 78 3 98 11 84 6 -11 8 -32 5 -49z m132 -96 c2 -14 -2 -22 -12 -22 -19 0
-28 14 -20 35 9 21 28 14 32 -13z m102 -38 c0 -9 -5 -14 -12 -12 -18 6 -21 28
-4 28 9 0 16 -7 16 -16z m-10 -104 c-6 -12 -14 -19 -17 -17 -2 3 1 15 7 27 6
12 14 19 17 17 2 -3 -1 -15 -7 -27z m-75 -28 c0 -18 -20 -15 -23 4 -3 10 1 15
10 12 7 -3 13 -10 13 -16z m45 -12 c0 -5 -4 -10 -10 -10 -5 0 -10 5 -10 10 0
6 5 10 10 10 6 0 10 -4 10 -10z m-266 -82 c-14 -20 -15 -20 -9 -3 4 11 10 31
13 45 6 24 7 24 10 3 2 -13 -4 -33 -14 -45z m83 18 c-3 -7 -1 -18 5 -24 13
-13 3 -42 -14 -42 -14 0 -18 47 -5 68 11 16 20 15 14 -2z m83 4 c0 -5 -5 -10
-11 -10 -5 0 -7 5 -4 10 3 6 8 10 11 10 2 0 4 -4 4 -10z m-184 -74 c-4 -15 0
-28 9 -36 20 -17 19 -34 -2 -26 -9 4 -20 1 -25 -6 -12 -19 -10 -68 3 -68 6 0
9 6 6 13 -3 8 -1 20 4 28 8 12 11 12 19 -1 9 -13 12 -13 21 4 9 15 13 16 20 5
4 -7 11 -11 14 -8 7 8 -15 61 -30 71 -6 5 -5 8 3 8 15 0 56 -40 59 -59 2 -16
-22 -43 -31 -34 -3 4 -6 1 -6 -5 0 -6 7 -15 15 -20 31 -17 7 -37 -45 -37 -47
0 -50 -1 -50 -26 0 -14 5 -51 11 -80 15 -77 20 -137 10 -119 -5 8 -16 76 -26
151 -18 130 -18 138 0 202 10 37 20 67 23 67 2 0 1 -11 -2 -24z m184 14 c0 -5
-4 -10 -10 -10 -5 0 -10 5 -10 10 0 6 5 10 10 10 6 0 10 -4 10 -10z m-30 -30
c0 -5 -4 -10 -10 -10 -5 0 -10 5 -10 10 0 6 5 10 10 10 6 0 10 -4 10 -10z m10
-160 c0 -5 -7 -10 -16 -10 -8 0 -12 5 -9 10 3 6 10 10 16 10 5 0 9 -4 9 -10z
m-9 -81 c-5 -18 -4 -29 2 -62 5 -25 4 -27 -10 -15 -9 7 -18 12 -20 11 -12 -10
-23 1 -23 22 0 14 -4 25 -10 25 -11 0 -13 30 -4 54 6 15 9 15 38 -2 17 -11 29
-25 27 -33z m136 4 c4 -10 13 -23 21 -29 9 -6 12 -16 8 -23 -5 -8 0 -14 13
-18 27 -7 28 -33 1 -33 -11 0 -20 -6 -20 -14 0 -9 -15 -16 -42 -18 -50 -6 -67
4 -48 27 11 13 10 18 -5 29 -21 15 -12 38 13 34 12 -2 17 5 19 22 2 39 2 40
18 40 9 0 19 -8 22 -17z m-77 -3 c0 -5 -5 -10 -11 -10 -5 0 -7 5 -4 10 3 6 8
10 11 10 2 0 4 -4 4 -10z m-160 -127 c-1 -24 -2 -26 -11 -10 -5 9 -7 22 -4 27
10 17 15 11 15 -17z m94 8 c3 -4 3 -11 0 -14 -8 -8 -34 3 -34 14 0 11 27 12
34 0z m223 -66 c-2 -5 -13 -11 -25 -13 -16 -3 -22 2 -22 16 0 10 3 21 6 25 9
8 45 -16 41 -28z m-207 -1 c0 -8 -5 -12 -10 -9 -6 4 -8 11 -5 16 9 14 15 11
15 -7z m-160 -151 c-11 -17 -11 -17 -6 0 3 10 7 44 8 75 l2 57 3 -57 c2 -33
-1 -66 -7 -75z m84 110 c4 -9 3 -20 -1 -24 -13 -13 -37 7 -30 25 8 21 23 20
31 -1z m76 -18 c0 -8 -7 -15 -15 -15 -8 0 -15 7 -15 15 0 8 7 15 15 15 8 0 15
-7 15 -15z m-90 -75 c22 -13 5 -23 -27 -16 -21 6 -24 9 -12 17 18 11 20 11 39
-1z m-12105 -148 c-18 -16 -18 -16 -5 1 10 14 10 23 1 43 -17 38 -12 43 7 6
15 -31 15 -33 -3 -50z m12031 62 c-4 -9 -1 -22 4 -30 8 -9 7 -21 -4 -42 -13
-25 -13 -32 -2 -48 15 -20 11 -79 -7 -102 -5 -7 -10 -40 -10 -75 0 -47 -1 -54
-6 -27 -8 42 3 313 13 329 11 17 19 13 12 -5z m99 6 c3 -5 2 -10 -4 -10 -5 0
-13 5 -16 10 -3 6 -2 10 4 10 5 0 13 -4 16 -10z m-12152 -105 c-3 -9 -8 -14
-10 -11 -3 3 -2 9 2 15 9 16 15 13 8 -4z m-25 -50 c-6 -14 -13 -23 -15 -21 -5
5 15 46 22 46 3 0 -1 -11 -7 -25z m36 -227 c26 -40 54 -84 63 -98 23 -34 4
-14 -34 35 -48 63 -91 146 -97 190 -6 38 -5 38 8 -7 8 -27 35 -81 60 -120z
m12101 119 c0 -26 -20 -25 -23 2 -3 16 1 22 10 19 7 -3 13 -12 13 -21z m-15
-113 c0 -8 -4 -12 -10 -9 -5 3 -10 10 -10 16 0 5 5 9 10 9 6 0 10 -7 10 -16z
m-66 -56 c-4 -29 -11 -64 -16 -77 -6 -17 -5 -27 4 -33 10 -7 9 -11 -4 -22 -10
-7 -18 -26 -18 -43 0 -17 -8 -37 -17 -44 -15 -12 -16 -12 -9 6 14 33 56 227
56 258 0 4 2 7 5 7 3 0 3 -24 -1 -52z m175 3 c9 -6 10 -10 2 -16 -16 -9 -44 2
-36 15 8 12 16 12 34 1z m-12089 -122 c12 -23 20 -43 18 -45 -3 -2 -14 17 -26
41 -27 56 -20 60 8 4z m27 -96 c-3 -10 -5 -4 -5 12 0 17 2 24 5 18 2 -7 2 -21
0 -30z m-11 -116 c1 -73 7 -108 28 -165 14 -40 26 -79 25 -85 -1 -29 -57 150
-63 202 -5 46 0 141 8 141 1 0 2 -42 2 -93z m11823 37 c-18 -22 -21 -11 -7 27
11 30 13 31 16 11 2 -13 -2 -30 -9 -38z m-29 -61 c-11 -17 -11 -17 -6 0 3 10
6 24 7 30 0 9 2 9 5 0 3 -7 0 -20 -6 -30z m340 -23 c0 -5 -4 -10 -10 -10 -5 0
-10 5 -10 10 0 6 5 10 10 10 6 0 10 -4 10 -10z m-369 -68 c-7 -13 -7 -31 0
-53 8 -29 7 -36 -11 -48 -24 -16 -26 -37 -5 -45 24 -9 17 -24 -9 -19 -25 5
-29 -8 -12 -35 12 -20 -3 -94 -19 -88 -18 6 -35 -14 -36 -43 -1 -18 -3 -20 -6
-8 -2 9 2 39 10 65 9 26 18 68 22 93 3 26 12 55 20 65 8 11 15 26 15 34 0 27
35 132 38 117 2 -9 -1 -25 -7 -35z m347 10 c2 -7 -3 -12 -12 -12 -9 0 -16 7
-16 16 0 17 22 14 28 -4z m-290 -134 c-3 -7 -11 -13 -18 -13 -7 0 -15 6 -17
13 -3 7 4 12 17 12 13 0 20 -5 18 -12z m-11718 -140 c0 -13 74 -148 111 -202
l31 -46 -25 -30 c-14 -16 -28 -43 -32 -60 -4 -16 -10 -32 -15 -35 -14 -9 20
83 36 96 15 12 19 39 6 39 -5 0 -9 6 -9 13 0 6 -21 47 -46 90 -25 43 -50 92
-57 110 -7 18 -21 53 -31 79 -10 26 -19 50 -18 55 0 10 49 -97 49 -109z
m11698 15 c2 -12 -1 -30 -6 -38 -7 -14 -11 -13 -26 10 -10 15 -15 33 -12 42 9
21 40 11 44 -14z m32 -48 c0 -8 -4 -15 -10 -15 -5 0 -10 7 -10 15 0 8 5 15 10
15 6 0 10 -7 10 -15z m60 -40 c0 -8 -4 -15 -10 -15 -5 0 -10 7 -10 15 0 8 5
15 10 15 6 0 10 -7 10 -15z m-30 -23 c0 -12 -3 -13 -11 -5 -6 6 -19 9 -28 5
-14 -5 -14 -3 -3 11 16 19 42 12 42 -11z m-60 -16 c0 -13 22 -14 69 0 19 6 22
4 19 -12 -2 -10 -9 -20 -16 -20 -6 -1 -16 -2 -22 -3 -5 0 -10 -9 -10 -18 0
-15 -2 -16 -10 -3 -5 8 -13 15 -17 16 -4 0 -20 4 -35 8 -37 11 -39 46 -3 46
14 0 25 -6 25 -14z m-104 -48 c3 -11 12 -17 19 -15 16 7 35 -12 35 -35 0 -9 6
-21 13 -25 7 -4 19 -21 27 -38 8 -16 16 -33 18 -37 2 -5 -1 -8 -6 -8 -5 0 -15
13 -22 30 -7 16 -32 51 -56 77 -24 26 -44 50 -44 55 0 4 -4 8 -9 8 -5 0 -11 9
-14 21 -5 20 -5 20 13 4 11 -10 22 -26 26 -37z m88 -3 c3 -9 -1 -18 -10 -22
-19 -7 -39 11 -30 26 10 16 33 13 40 -4z m33 -267 c-2 -13 -4 -3 -4 22 0 25 2
35 4 23 2 -13 2 -33 0 -45z m-11662 13 c-3 -16 -2 -46 4 -65 5 -20 6 -34 1
-31 -12 8 -21 71 -14 99 9 36 17 33 9 -3z m11668 -83 c4 -28 2 -38 -8 -38 -7
0 -15 -6 -18 -12 -2 -7 -2 -4 0 7 3 11 7 35 10 53 6 40 8 38 16 -10z m-11587
-145 l19 -32 -32 -28 c-17 -15 -36 -37 -42 -48 -6 -11 -11 -14 -11 -8 0 7 16
31 37 53 l36 41 -31 45 c-18 24 -34 56 -38 72 -4 19 1 14 18 -18 13 -25 33
-59 44 -77z m11689 87 c3 -5 1 -10 -4 -10 -6 0 -11 5 -11 10 0 6 2 10 4 10 3
0 8 -4 11 -10z m-25 -10 c0 -5 -7 -10 -16 -10 -8 0 -12 5 -9 10 3 6 10 10 16
10 5 0 9 -4 9 -10z m-125 -48 c-15 -16 -16 -15 -4 12 7 15 15 23 17 16 3 -7
-3 -19 -13 -28z m115 -2 c0 -5 -5 -10 -11 -10 -5 0 -7 5 -4 10 3 6 8 10 11 10
2 0 4 -4 4 -10z m-35 -10 c-3 -5 -11 -10 -16 -10 -6 0 -7 5 -4 10 3 6 11 10
16 10 6 0 7 -4 4 -10z m-104 -33 c-10 -9 -11 -8 -5 6 3 10 9 15 12 12 3 -3 0
-11 -7 -18z m-18 -34 c-8 -24 -54 -103 -59 -103 -3 0 10 27 27 60 30 59 45 77
32 43z m-11577 -124 c-9 -20 -15 -27 -16 -16 0 20 19 61 26 54 2 -2 -2 -19
-10 -38z m11495 -32 c-10 -9 -11 -8 -5 6 3 10 9 15 12 12 3 -3 0 -11 -7 -18z
m224 14 c3 -5 1 -12 -5 -16 -5 -3 -10 1 -10 9 0 18 6 21 15 7z m-120 -11 c-3
-5 -10 -10 -16 -10 -5 0 -9 5 -9 10 0 6 7 10 16 10 8 0 12 -4 9 -10z m75 -10
c0 -5 -5 -10 -11 -10 -5 0 -7 5 -4 10 3 6 8 10 11 10 2 0 4 -4 4 -10z m-11693
-32 c-3 -7 -5 -2 -5 12 0 14 2 19 5 13 2 -7 2 -19 0 -25z m11514 5 c13 -16 12
-17 -3 -4 -10 7 -18 15 -18 17 0 8 8 3 21 -13z m168 -9 c2 -2 -5 -4 -16 -4
-16 0 -20 -5 -16 -20 6 -23 -9 -26 -27 -5 -20 24 -5 47 27 39 16 -4 30 -8 32
-10z m-96 -71 c5 -29 -1 -22 -33 32 l-23 40 25 -23 c14 -13 28 -35 31 -49z
m-11540 -11 c27 -28 119 -82 141 -82 10 0 16 -8 15 -22 -1 -14 -3 -17 -5 -8
-3 9 -17 21 -33 26 -78 30 -162 106 -160 146 0 7 5 2 10 -12 6 -14 20 -35 32
-48z m11565 -47 c-3 -3 -9 2 -12 12 -6 14 -5 15 5 6 7 -7 10 -15 7 -18z m9
-52 c-3 -10 -5 -4 -5 12 0 17 2 24 5 18 2 -7 2 -21 0 -30z m10 -45 c-3 -8 -6
-5 -6 6 -1 11 2 17 5 13 3 -3 4 -12 1 -19z m-11350 -98 c37 -24 62 -49 63 -61
0 -3 -19 11 -42 33 -23 21 -45 38 -49 38 -10 0 -49 64 -49 81 0 8 9 -4 20 -26
11 -22 37 -51 57 -65z m11360 48 c-3 -7 -5 -2 -5 12 0 14 2 19 5 13 2 -7 2
-19 0 -25z m-10 -70 c-2 -13 -4 -5 -4 17 -1 22 1 32 4 23 2 -10 2 -28 0 -40z
m-12 -68 c-9 -41 -17 -33 -9 9 4 17 9 30 11 27 3 -2 2 -19 -2 -36z m-11268
-22 c-3 -7 -5 -2 -5 12 0 14 2 19 5 13 2 -7 2 -19 0 -25z m129 -228 c28 -36
71 -103 95 -150 25 -47 62 -111 82 -143 37 -58 67 -146 67 -199 0 -59 34 -195
61 -244 35 -62 59 -84 127 -119 39 -20 58 -38 73 -67 11 -22 16 -37 11 -34 -5
3 -15 19 -22 36 -7 17 -22 33 -36 36 -13 3 -28 12 -35 20 -16 19 -33 18 -25
-2 3 -8 -1 -22 -9 -30 -8 -9 -15 -11 -15 -5 0 6 -9 11 -20 11 -26 0 -37 27
-21 52 10 15 8 24 -7 46 -10 15 -22 35 -25 45 -4 9 -16 17 -28 17 -19 0 -20 4
-15 34 4 19 2 37 -3 41 -6 3 -10 18 -9 33 0 15 -4 51 -11 81 -6 29 -11 71 -11
93 0 39 -39 130 -80 188 -11 15 -20 31 -20 35 0 10 -41 60 -48 60 -7 0 -8 5
-11 32 0 7 -8 10 -16 7 -8 -4 -13 -10 -10 -14 3 -5 1 -11 -4 -14 -20 -13 -22
17 -3 36 17 17 18 25 10 44 -6 13 -17 24 -25 24 -7 0 -13 6 -13 14 0 8 -16 33
-35 56 -19 23 -35 46 -35 52 0 5 -9 21 -20 35 -11 14 -20 23 -20 19 0 -4 -5
-4 -10 -1 -8 5 -8 11 0 20 8 9 7 17 -3 27 -7 7 -12 19 -9 27 2 7 21 -20 41
-60 20 -41 59 -103 87 -139z m11104 114 c-18 -62 -25 -47 -9 16 7 29 15 47 17
40 2 -6 -1 -32 -8 -56z m-11225 -44 c-5 -8 -11 -8 -17 -2 -6 6 -7 16 -3 22 5
8 11 8 17 2 6 -6 7 -16 3 -22z m43 -28 c2 -7 -3 -12 -12 -12 -9 0 -16 7 -16
16 0 17 22 14 28 -4z m11157 -32 c-4 -23 -9 -39 -11 -37 -3 2 -2 23 2 46 4 23
9 40 11 37 3 -3 2 -23 -2 -46z m2 -72 c-3 -8 -6 -5 -6 6 -1 11 2 17 5 13 3 -3
4 -12 1 -19z m32 -83 c0 -5 -4 -3 -9 5 -5 8 -9 22 -9 30 0 16 17 -16 18 -35z
m-11124 -15 c3 -5 -1 -10 -10 -10 -9 0 -13 5 -10 10 3 6 8 10 10 10 2 0 7 -4
10 -10z m11143 -55 c0 -16 -2 -15 -8 5 -11 34 -11 60 0 35 5 -11 8 -29 8 -40z
m-11073 25 c15 -7 16 -9 4 -9 -9 -1 -24 -11 -32 -23 -13 -19 -18 -21 -26 -9
-6 10 -6 21 0 33 11 19 23 21 54 8z m11082 -82 c-3 -7 -5 -2 -5 12 0 14 2 19
5 13 2 -7 2 -19 0 -25z m10 -105 c-3 -10 -5 -4 -5 12 0 17 2 24 5 18 2 -7 2
-21 0 -30z m-10977 -13 c0 -11 -7 -23 -15 -27 -21 -8 -28 1 -20 26 8 27 35 27
35 1z m-247 -28 c-12 -34 -17 -36 -23 -12 -8 31 -4 41 15 34 8 -3 11 -13 8
-22z m157 -32 c0 -5 -4 -10 -10 -10 -5 0 -10 5 -10 10 0 6 5 10 10 10 6 0 10
-4 10 -10z m11047 -82 c-3 -7 -5 -2 -5 12 0 14 2 19 5 13 2 -7 2 -19 0 -25z
m-11017 -18 c0 -5 -4 -10 -10 -10 -5 0 -10 5 -10 10 0 6 5 10 10 10 6 0 10 -4
10 -10z m-78 -15 c0 -5 -5 -11 -11 -13 -6 -2 -11 4 -11 13 0 9 5 15 11 13 6
-2 11 -8 11 -13z m11085 -7 c-3 -8 -6 -5 -6 6 -1 11 2 17 5 13 3 -3 4 -12 1
-19z m-10902 -7 c-3 -6 -11 -8 -17 -5 -6 4 -5 9 3 15 16 10 23 4 14 -10z
m10892 -33 c-3 -8 -6 -5 -6 6 -1 11 2 17 5 13 3 -3 4 -12 1 -19z m-11037 -8
c0 -19 -11 -26 -23 -14 -8 8 3 34 14 34 5 0 9 -9 9 -20z m-134 -27 c-10 -10
-19 5 -10 18 6 11 8 11 12 0 2 -7 1 -15 -2 -18z m11155 -14 c-5 -13 -10 -19
-10 -12 -1 15 10 45 15 40 3 -2 0 -15 -5 -28z m-10958 -46 c-7 -2 -19 -2 -25
0 -7 3 -2 5 12 5 14 0 19 -2 13 -5z m10933 -30 c-8 -15 -15 -25 -16 -21 0 12
23 58 27 54 3 -2 -2 -17 -11 -33z m-10979 -17 c-4 -9 -11 -16 -17 -16 -11 0
-14 33 -3 44 11 10 26 -11 20 -28z m100 -2 c-9 -9 -28 6 -21 18 4 6 10 6 17
-1 6 -6 8 -13 4 -17z m69 -19 c-3 -9 -11 -13 -16 -10 -8 5 -7 11 1 21 14 18
24 11 15 -11z m-41 -15 c19 -7 18 -9 -8 -19 -38 -15 -67 -14 -67 2 0 27 32 35
75 17z m79 -5 c3 -9 0 -15 -9 -15 -8 0 -15 7 -15 15 0 8 4 15 9 15 5 0 11 -7
15 -15z m10745 -24 c-6 -18 -13 -30 -15 -28 -2 2 1 18 7 36 6 18 13 30 15 28
2 -2 -1 -18 -7 -36z m-10934 -1 c3 -5 1 -10 -4 -10 -6 0 -11 5 -11 10 0 6 2
10 4 10 3 0 8 -4 11 -10z m165 -140 c0 -11 -7 -20 -15 -20 -18 0 -19 12 -3 28
16 16 18 15 18 -8z m291 -68 c31 -30 97 -73 129 -83 22 -6 23 -7 4 -8 -12 -1
-33 8 -47 19 -14 11 -30 20 -36 20 -18 0 -91 79 -90 98 0 14 2 14 9 -3 4 -11
18 -30 31 -43z m-231 28 c0 -11 -4 -20 -9 -20 -5 0 -7 -9 -4 -20 7 -26 0 -25
-31 4 -30 27 -33 43 -8 49 38 10 52 7 52 -13z m-120 -5 c0 -8 -4 -15 -10 -15
-5 0 -10 7 -10 15 0 8 5 15 10 15 6 0 10 -7 10 -15z m277 -12 c-9 -9 -19 -14
-23 -11 -10 10 6 28 24 28 15 0 15 -1 -1 -17z m-97 3 c0 -3 -4 -8 -10 -11 -5
-3 -10 -1 -10 4 0 6 5 11 10 11 6 0 10 -2 10 -4z m10567 -58 c-3 -7 -5 -2 -5
12 0 14 2 19 5 13 2 -7 2 -19 0 -25z m-10729 11 c-2 -6 -8 -10 -13 -10 -5 0
-11 4 -13 10 -2 6 4 11 13 11 9 0 15 -5 13 -11z m68 -20 c3 -6 1 -16 -5 -22
-9 -9 -14 -8 -21 3 -9 15 -4 30 10 30 5 0 12 -5 16 -11z m10649 -74 c-4 -31
-9 -54 -12 -51 -3 2 -1 30 2 61 4 31 9 54 12 51 3 -2 1 -30 -2 -61z m-10565
35 c0 -4 -8 -15 -19 -24 -17 -16 -19 -16 -24 5 -3 13 -4 26 -2 30 6 9 45 0 45
-11z m396 -112 c-1 -106 1 -117 29 -171 33 -66 66 -98 140 -134 59 -29 83 -70
63 -107 -8 -15 -13 -17 -16 -7 -2 7 1 17 8 21 20 12 -11 57 -55 80 -22 11 -43
20 -48 20 -5 0 -23 11 -39 26 -17 14 -37 23 -46 19 -10 -4 -12 -1 -8 11 10 25
-4 37 -19 17 -11 -14 -16 -15 -26 -6 -10 10 -7 14 14 22 32 12 31 9 10 52 -12
24 -18 68 -21 146 -4 104 -6 112 -26 116 -14 3 -12 5 10 6 l31 1 -1 -112z
m-394 30 c-9 -9 -12 -7 -12 12 0 19 3 21 12 12 9 -9 9 -15 0 -24z m-257 2 c4
-6 -5 -10 -20 -10 -15 0 -24 4 -20 10 3 6 12 10 20 10 8 0 17 -4 20 -10z
m10802 -52 c-3 -7 -5 -2 -5 12 0 14 2 19 5 13 2 -7 2 -19 0 -25z m-10881 -36
c-22 -22 -32 -7 -17 25 12 25 13 26 23 9 8 -13 6 -22 -6 -34z m74 38 c0 -5 -2
-10 -4 -10 -3 0 -8 5 -11 10 -3 6 -1 10 4 10 6 0 11 -4 11 -10z m523 -32 c10
-35 -47 -66 -59 -33 -4 9 3 24 16 35 29 25 36 25 43 -2z m10274 -60 c-2 -13
-4 -5 -4 17 -1 22 1 32 4 23 2 -10 2 -28 0 -40z m-10254 7 c7 -16 -8 -29 -23
-20 -15 9 -12 35 4 35 8 0 16 -7 19 -15z m10242 -90 c-3 -26 -8 -45 -11 -43
-2 3 -1 26 2 52 4 25 9 44 12 42 2 -3 1 -26 -3 -51z m-10825 15 c0 -5 -2 -10
-4 -10 -3 0 -8 5 -11 10 -3 6 -1 10 4 10 6 0 11 -4 11 -10z m624 4 c9 -3 16
-13 16 -20 0 -12 -4 -12 -20 -4 -11 6 -20 15 -20 20 0 12 3 12 24 4z m81 -114
c3 -6 -1 -13 -10 -16 -19 -8 -30 0 -20 15 8 14 22 14 30 1z m63 -17 c3 -17 -2
-21 -22 -19 -16 0 -26 7 -26 17 0 36 43 38 48 2z m10039 -5 c-3 -7 -5 -2 -5
12 0 14 2 19 5 13 2 -7 2 -19 0 -25z m-10597 -38 c0 -5 -4 -10 -10 -10 -5 0
-10 5 -10 10 0 6 5 10 10 10 6 0 10 -4 10 -10z m10587 -12 c-3 -8 -6 -5 -6 6
-1 11 2 17 5 13 3 -3 4 -12 1 -19z m-10507 2 c0 -5 -4 -10 -9 -10 -6 0 -13 5
-16 10 -3 6 1 10 9 10 9 0 16 -4 16 -10z m410 -7 c0 -5 -7 -17 -15 -27 -14
-19 -15 -19 -15 7 0 17 5 27 15 27 8 0 15 -3 15 -7z m58 -15 c7 -7 12 -9 12
-5 0 4 9 3 21 -4 14 -7 18 -14 11 -21 -6 -6 -16 -6 -28 0 -11 6 -27 13 -37 16
-10 3 -15 10 -12 16 8 13 18 13 33 -2z m-318 -37 c0 -12 -20 -25 -27 -18 -7 7
6 27 18 27 5 0 9 -4 9 -9z m563 -73 c21 -17 13 -26 -9 -10 -13 9 -54 76 -54
88 0 5 9 -7 21 -26 11 -19 31 -43 42 -52z m-268 63 c3 -5 1 -12 -5 -16 -14 -9
-52 4 -45 16 8 12 42 12 50 0z m-525 -16 c0 -8 -4 -15 -10 -15 -5 0 -10 7 -10
15 0 8 5 15 10 15 6 0 10 -7 10 -15z m315 6 c3 -5 1 -12 -5 -16 -5 -3 -10 1
-10 9 0 18 6 21 15 7z m139 -7 c8 -20 8 -24 -1 -24 -17 0 -35 19 -29 29 10 16
23 14 30 -5z m49 -21 c-7 -2 -19 -2 -25 0 -7 3 -2 5 12 5 14 0 19 -2 13 -5z
m221 -58 c3 -9 0 -15 -9 -15 -8 0 -15 7 -15 15 0 8 4 15 9 15 5 0 11 -7 15
-15z m122 4 c3 -6 26 -20 49 -30 42 -18 43 -21 60 -91 16 -70 45 -158 63 -195
5 -10 18 -36 28 -58 22 -46 127 -153 164 -167 15 -5 43 -37 70 -79 24 -39 58
-82 75 -96 16 -13 21 -20 10 -15 -24 12 -51 42 -89 100 -16 23 -33 42 -37 42
-5 0 -9 6 -9 14 0 19 -30 29 -46 15 -13 -11 -18 -5 -15 15 2 10 -29 46 -39 46
-4 0 -5 -11 -2 -25 8 -43 -47 -87 -62 -50 -3 8 -12 15 -21 15 -20 0 -19 34 1
55 13 12 14 19 4 30 -7 8 -19 15 -26 15 -19 0 -18 30 3 45 19 14 10 35 -15 35
-12 0 -13 3 -5 8 16 10 5 52 -13 52 -9 0 -14 12 -14 35 0 20 -8 50 -17 68 -9
18 -17 50 -18 73 -1 46 -31 91 -57 86 -11 -2 -18 3 -18 12 0 8 -12 24 -26 35
-15 12 -22 21 -16 21 6 0 14 -5 18 -11z m-311 -39 c3 -5 -1 -10 -10 -10 -9 0
-13 5 -10 10 3 6 8 10 10 10 2 0 7 -4 10 -10z m-219 -129 c-13 -20 -26 -11
-26 16 0 25 1 26 16 11 9 -9 13 -21 10 -27z m564 -43 c0 -20 -37 -71 -43 -61
-7 11 22 73 34 73 5 0 9 -6 9 -12z m-84 -55 c-6 -15 -8 -15 -16 -3 -6 9 -6 16
0 18 6 2 7 9 4 15 -5 9 -4 9 6 0 7 -7 10 -19 6 -30z m114 -73 c0 -5 -5 -10
-11 -10 -5 0 -7 5 -4 10 3 6 8 10 11 10 2 0 4 -4 4 -10z m45 -30 c3 -5 1 -10
-4 -10 -6 0 -11 5 -11 10 0 6 2 10 4 10 3 0 8 -4 11 -10z m-65 -70 c0 -5 -7
-10 -16 -10 -8 0 -12 5 -9 10 3 6 10 10 16 10 5 0 9 -4 9 -10z m-3 -52 c-3 -8
-6 -5 -6 6 -1 11 2 17 5 13 3 -3 4 -12 1 -19z m53 -3 c0 -8 -4 -15 -10 -15 -5
0 -10 7 -10 15 0 8 5 15 10 15 6 0 10 -7 10 -15z m825 -365 c13 -6 5 -7 -25
-3 -25 3 -47 7 -49 9 -9 8 55 2 74 -6z m106 -31 c60 -20 161 -78 176 -102 4
-6 1 -7 -8 -2 -7 5 -23 10 -35 11 -26 3 -85 33 -66 34 22 0 13 17 -17 30 -16
6 -45 10 -64 9 -22 -2 -40 3 -51 13 -33 34 -22 35 65 7z m997 -306 c-21 -2
-55 -2 -75 0 -21 2 -4 4 37 4 41 0 58 -2 38 -4z m102 -39 c27 -20 50 -38 50
-41 0 -6 -56 28 -88 54 -43 35 -17 27 38 -13z"/>
<path d="M6140 18762 c0 -6 6 -13 13 -16 8 -3 6 -9 -7 -20 -23 -19 -13 -35 12
-20 23 15 22 58 0 62 -10 2 -18 -1 -18 -6z"/>
<path d="M5180 17306 c0 -22 17 -28 24 -10 9 22 8 24 -9 24 -8 0 -15 -6 -15
-14z"/>
<path d="M5240 17255 c0 -8 7 -15 16 -15 14 0 14 3 4 15 -7 8 -14 15 -16 15
-2 0 -4 -7 -4 -15z"/>
<path d="M5238 17218 c-4 -10 -3 -20 3 -24 6 -4 6 -11 -2 -20 -9 -11 -8 -14 2
-14 8 0 20 4 28 9 11 7 11 10 -2 17 -8 5 -17 18 -19 29 -3 18 -4 18 -10 3z"/>
<path d="M4950 16655 c0 -8 7 -15 15 -15 8 0 15 4 15 9 0 5 -7 11 -15 15 -9 3
-15 0 -15 -9z"/>
<path d="M4857 16193 c-12 -11 -8 -23 8 -23 8 0 15 7 15 15 0 16 -12 20 -23 8z"/>
<path d="M12725 15829 c-137 -35 -262 -115 -355 -226 -61 -73 -95 -136 -127
-233 -37 -114 -39 -277 -5 -385 46 -146 147 -287 262 -365 253 -172 554 -165
800 19 110 82 207 233 244 377 23 89 21 242 -4 329 -36 126 -86 211 -180 305
-68 69 -102 94 -170 127 -149 72 -316 91 -465 52z m499 -238 c59 -60 34 -161
-47 -188 -76 -25 -152 28 -152 107 0 106 123 156 199 81z"/>
<path d="M8370 15824 c-14 -3 -43 -12 -65 -19 -228 -77 -373 -222 -451 -450
-23 -68 -27 -97 -28 -195 0 -100 3 -126 28 -203 73 -224 221 -372 452 -449 58
-19 89 -23 194 -22 108 0 135 4 202 27 288 99 467 348 468 647 0 292 -183 544
-470 645 -45 16 -278 29 -330 19z m441 -230 c29 -15 59 -65 59 -100 0 -30 -30
-80 -59 -97 -59 -35 -137 -12 -166 49 -19 41 -19 58 1 100 29 60 102 81 165
48z"/>
<path d="M4670 15271 c0 -6 5 -13 10 -16 6 -3 10 1 10 9 0 9 -4 16 -10 16 -5
0 -10 -4 -10 -9z"/>
<path d="M4481 13884 c0 -11 3 -14 6 -6 3 7 2 16 -1 19 -3 4 -6 -2 -5 -13z"/>
<path d="M4460 13814 c0 -8 5 -12 10 -9 6 3 10 10 10 16 0 5 -4 9 -10 9 -5 0
-10 -7 -10 -16z"/>
<path d="M4456 13752 c-4 -13 -5 -26 -2 -29 10 -11 18 4 14 29 l-4 23 -8 -23z"/>
<path d="M11774 13425 c-9 -23 3 -45 24 -45 25 0 44 23 36 44 -8 20 -53 21
-60 1z"/>
<path d="M4475 13367 c-4 -10 -5 -21 -1 -24 10 -10 18 4 13 24 -4 17 -4 17
-12 0z"/>
<path d="M11530 13345 c-19 -23 -6 -88 26 -133 58 -81 167 -122 271 -103 89
17 153 57 153 97 0 35 -32 38 -87 10 -68 -36 -132 -43 -188 -22 -49 19 -105
76 -105 106 0 20 -33 60 -49 60 -5 0 -14 -7 -21 -15z"/>
<path d="M11660 13345 c-19 -23 -8 -50 20 -50 16 0 26 6 28 18 4 18 -14 47
-28 47 -4 0 -13 -7 -20 -15z"/>
<path d="M11777 13304 c-13 -13 -7 -55 9 -61 24 -9 51 23 38 45 -12 19 -36 27
-47 16z"/>
<path d="M9748 13073 c-9 -10 -18 -40 -21 -66 -6 -58 -47 -128 -100 -171 -36
-29 -46 -31 -135 -36 -95 -5 -97 -5 -97 -30 0 -33 41 -52 114 -52 76 0 146 31
204 90 77 79 118 204 83 257 -19 30 -28 31 -48 8z"/>
<path d="M11573 13023 c-11 -10 -42 -54 -68 -97 -263 -431 -748 -684 -1152
-600 -201 41 -339 132 -496 327 -42 53 -74 60 -107 27 -29 -29 -25 -58 16
-119 92 -136 256 -263 419 -324 205 -76 453 -76 675 0 109 37 272 124 370 197
157 117 352 342 429 493 26 52 26 68 1 93 -25 25 -61 26 -87 3z"/>
<path d="M9440 13005 c-18 -21 -5 -47 22 -43 26 3 37 36 16 49 -18 12 -24 11
-38 -6z"/>
<path d="M9555 12939 c-10 -30 19 -53 47 -38 29 15 20 53 -14 57 -20 2 -28 -2
-33 -19z"/>
<path d="M4490 12919 c0 -5 -4 -7 -10 -4 -5 3 -10 1 -10 -4 0 -6 7 -11 15 -11
8 0 15 7 15 15 0 8 -2 15 -5 15 -3 0 -5 -5 -5 -11z"/>
<path d="M9469 12874 c-16 -20 -1 -48 29 -52 25 -4 39 32 22 53 -16 19 -34 19
-51 -1z"/>
<path d="M4423 12565 c-3 -9 -3 -18 -1 -21 3 -3 8 4 11 16 6 23 -1 27 -10 5z"/>
<path d="M4288 11850 c5 -36 7 -35 16 3 4 19 3 27 -7 27 -9 0 -12 -9 -9 -30z"/>
<path d="M11188 10595 c-109 -41 -329 -233 -411 -358 -18 -28 -60 -93 -93
-142 l-59 -90 -55 22 c-69 28 -115 29 -182 3 -29 -11 -54 -20 -55 -20 -2 0
-43 60 -91 133 -119 177 -270 325 -394 387 -46 23 -103 44 -126 47 -91 12
-204 -80 -238 -195 -24 -79 -30 -638 -10 -892 9 -112 21 -221 26 -241 6 -22
26 -52 51 -74 l42 -37 82 4 c68 4 94 10 160 41 89 43 208 133 340 258 49 47
104 95 120 107 31 20 31 20 85 2 30 -11 67 -19 82 -20 52 0 129 22 157 46 16
13 33 24 39 24 6 0 57 -44 114 -98 56 -54 129 -118 162 -143 207 -157 253
-179 377 -182 92 -2 121 13 156 84 37 74 57 398 50 789 -7 344 -13 383 -66
457 -51 70 -95 97 -165 100 -35 2 -77 -3 -98 -12z"/>
<path d="M10389 8906 c-175 -47 -220 -268 -79 -388 147 -127 359 -31 360 162
0 62 -32 141 -71 177 -52 47 -140 68 -210 49z"/>
<path d="M10387 7645 c-97 -25 -156 -96 -164 -196 -4 -57 -2 -70 24 -119 67
-126 234 -160 339 -67 143 125 72 361 -116 389 -19 3 -57 0 -83 -7z"/>
<path d="M10300 6449 c-91 -41 -134 -108 -134 -205 1 -117 81 -203 197 -212
78 -6 136 17 185 73 84 96 82 208 -7 296 -70 70 -155 87 -241 48z"/>
<path d="M9922 5950 c0 -14 2 -19 5 -12 2 6 2 18 0 25 -3 6 -5 1 -5 -13z"/>
<path d="M10253 5406 c-39 -18 -61 -37 -83 -72 -16 -27 -30 -56 -30 -65 0 -34
-17 -28 -30 11 -7 22 -15 38 -17 36 -8 -8 70 -211 93 -242 67 -92 242 -98 321
-13 42 46 66 117 60 177 -16 151 -173 235 -314 168z"/>
<path d="M10201 4885 c1 -11 5 -33 9 -50 l8 -30 1 35 c0 19 -4 42 -9 50 -8 12
-10 11 -9 -5z"/>
<path d="M4110 12620 c0 -5 5 -10 11 -10 5 0 7 5 4 10 -3 6 -8 10 -11 10 -2 0
-4 -4 -4 -10z"/>
<path d="M4156 12611 c-19 -21 -20 -31 -3 -31 15 0 39 37 28 44 -5 3 -16 -3
-25 -13z"/>
<path d="M16355 7860 c3 -5 8 -10 11 -10 2 0 4 5 4 10 0 6 -5 10 -11 10 -5 0
-7 -4 -4 -10z"/>
<path d="M6130 1770 c0 -5 5 -10 10 -10 6 0 10 5 10 10 0 6 -4 10 -10 10 -5 0
-10 -4 -10 -10z"/>
<path d="M6153 1735 c-7 -8 -13 -17 -13 -20 0 -10 29 -5 36 6 10 17 -10 29
-23 14z"/>
<path d="M3234 18048 l-19 -23 23 19 c12 11 22 21 22 23 0 8 -8 2 -26 -19z"/>
<path d="M2534 17338 l-19 -23 23 19 c12 11 22 21 22 23 0 8 -8 2 -26 -19z"/>
<path d="M48 13683 c7 -3 16 -2 19 1 4 3 -2 6 -13 5 -11 0 -14 -3 -6 -6z"/>
<path d="M20011 13204 c0 -11 3 -14 6 -6 3 7 2 16 -1 19 -3 4 -6 -2 -5 -13z"/>
<path d="M20041 13110 c0 -8 4 -24 9 -35 5 -13 9 -14 9 -5 0 8 -4 24 -9 35 -5
13 -9 14 -9 5z"/>
<path d="M20065 13030 c3 -14 28 -113 57 -220 28 -107 57 -224 65 -260 72
-339 105 -509 132 -690 11 -69 24 -152 30 -185 6 -33 15 -109 21 -170 6 -60
15 -135 20 -165 5 -30 19 -172 31 -315 19 -222 22 -333 23 -760 0 -427 -3
-539 -22 -770 -12 -148 -25 -281 -28 -295 -3 -14 -14 -97 -25 -185 -50 -428
-165 -1027 -269 -1395 -10 -36 -31 -108 -45 -160 -29 -104 -117 -392 -140
-455 -8 -22 -37 -103 -66 -180 -28 -77 -63 -169 -76 -205 -13 -36 -32 -87 -42
-115 -11 -27 -29 -72 -41 -98 -12 -27 -20 -51 -17 -53 2 -3 28 53 57 123 456
1108 708 2296 739 3476 26 999 -80 1901 -334 2852 -30 110 -59 211 -65 225
l-11 25 6 -25z"/>
<path d="M19636 6279 c-15 -34 -25 -63 -23 -65 2 -2 16 24 30 58 15 34 25 63
23 65 -2 2 -15 -24 -30 -58z"/>
<path d="M19585 6163 c-8 -20 -13 -38 -10 -41 3 -3 5 -3 5 0 0 3 7 22 15 42 8
20 13 36 10 36 -2 0 -12 -16 -20 -37z"/>
<path d="M20118 5353 c7 -3 16 -2 19 1 4 3 -2 6 -13 5 -11 0 -14 -3 -6 -6z"/>
<path d="M16998 2093 c7 -3 16 -2 19 1 4 3 -2 6 -13 5 -11 0 -14 -3 -6 -6z"/>
<path d="M12350 289 c-201 -44 -513 -99 -564 -99 -16 0 -27 -2 -24 -5 14 -14
223 -15 334 -1 120 14 259 49 270 67 3 5 12 9 20 9 8 0 32 11 52 25 44 30 33
30 -88 4z"/>
<path d="M13598 253 c7 -3 16 -2 19 1 4 3 -2 6 -13 5 -11 0 -14 -3 -6 -6z"/>
<path d="M7238 203 c7 -3 16 -2 19 1 4 3 -2 6 -13 5 -11 0 -14 -3 -6 -6z"/>
<path d="M10970 98 c-74 -4 -175 -12 -225 -16 l-90 -8 55 -13 c143 -34 289
-22 475 38 27 8 24 9 -25 9 -30 -1 -116 -5 -190 -10z"/>
</g>
</svg>
