<?xml version="1.0" standalone="no"?>
<!DOCTYPE svg PUBLIC "-//W3C//DTD SVG 20010904//EN"
 "http://www.w3.org/TR/2001/REC-SVG-20010904/DTD/svg10.dtd">
<svg version="1.0" xmlns="http://www.w3.org/2000/svg"
 width="2048.000000pt" height="2048.000000pt" viewBox="0 0 2048.000000 2048.000000"
 preserveAspectRatio="xMidYMid meet">
<metadata>
Created by potrace 1.11, written by Peter Selinger 2001-2013
</metadata>
<g transform="translate(0.000000,2048.000000) scale(0.100000,-0.100000)"
fill="#000000" stroke="none">
<path d="M5750 18601 c-74 -15 -144 -30 -154 -34 -11 -4 -35 -10 -55 -13 -48
-7 -168 -44 -200 -60 -14 -8 -33 -14 -41 -14 -34 0 -235 -78 -370 -143 -78
-37 -389 -214 -410 -232 -18 -16 -92 -69 -170 -121 -74 -50 -176 -130 -225
-175 -22 -20 -85 -77 -140 -127 -205 -185 -548 -547 -656 -693 -40 -54 -113
-146 -138 -174 -30 -34 -96 -128 -125 -179 -15 -26 -36 -56 -47 -67 -10 -10
-29 -33 -41 -52 -75 -111 -118 -179 -185 -287 -22 -36 -71 -114 -109 -175 -37
-60 -81 -134 -97 -165 -55 -107 -88 -165 -112 -200 -13 -19 -56 -100 -94 -180
-39 -80 -77 -156 -85 -170 -29 -48 -144 -286 -170 -350 -15 -36 -38 -85 -50
-110 -13 -25 -36 -76 -50 -115 -15 -38 -38 -92 -51 -120 -13 -27 -36 -90 -52
-140 -26 -83 -28 -103 -28 -246 l0 -155 35 -70 c45 -89 154 -201 230 -236 122
-56 266 -58 400 -6 74 29 177 114 230 190 24 35 47 65 51 68 4 3 37 68 74 145
37 77 75 157 86 178 10 22 19 45 19 52 0 8 27 67 60 133 33 65 60 126 60 135
0 9 4 18 8 21 9 5 64 113 132 261 23 50 46 92 50 95 5 3 36 59 70 125 35 66
68 127 74 135 7 8 17 26 24 40 21 43 194 331 268 445 43 65 249 347 344 470
41 53 88 113 103 134 96 125 480 511 587 591 25 18 50 39 55 45 6 6 46 35 90
65 44 29 82 57 85 60 5 7 96 69 154 104 52 31 304 156 316 156 6 0 35 11 63
23 269 122 729 153 1010 68 18 -5 50 -14 72 -19 86 -22 375 -150 411 -183 11
-10 23 -19 27 -19 7 0 119 -70 127 -79 3 -4 39 -31 80 -61 41 -30 95 -70 119
-90 84 -66 334 -323 413 -424 44 -56 94 -119 111 -140 89 -110 296 -423 382
-576 32 -58 64 -112 71 -120 7 -8 58 -107 114 -220 89 -179 132 -268 211 -435
10 -22 35 -83 55 -135 20 -52 39 -99 43 -105 4 -5 13 -28 20 -50 7 -22 30 -80
50 -130 43 -103 68 -171 86 -235 6 -25 17 -55 23 -66 6 -12 13 -33 16 -48 5
-30 30 -102 52 -153 8 -17 14 -36 14 -41 0 -6 18 -66 41 -134 22 -68 42 -134
45 -148 3 -14 11 -45 19 -70 22 -73 112 -414 149 -565 13 -55 31 -127 39 -160
21 -83 67 -313 82 -411 7 -45 15 -87 19 -92 3 -6 10 -41 16 -79 8 -60 16 -106
60 -316 5 -27 10 -66 10 -87 0 -21 4 -60 10 -87 26 -132 40 -218 54 -318 26
-191 55 -445 66 -575 6 -69 15 -163 21 -209 5 -47 11 -112 13 -145 1 -34 9
-163 16 -287 12 -189 12 -259 0 -430 -7 -112 -14 -238 -16 -279 -2 -41 -8
-115 -13 -165 -6 -49 -15 -139 -21 -200 -23 -237 -76 -646 -105 -815 -8 -47
-19 -125 -25 -175 -6 -49 -15 -103 -20 -120 -10 -30 -34 -163 -50 -265 -4 -30
-15 -91 -24 -135 -8 -44 -27 -141 -42 -215 -14 -74 -34 -166 -44 -205 -10 -38
-28 -115 -40 -170 -22 -101 -27 -120 -81 -320 -17 -60 -41 -152 -54 -203 -26
-100 -27 -104 -80 -262 -19 -58 -37 -114 -38 -125 -2 -11 -7 -27 -10 -35 -14
-35 -41 -112 -76 -225 -56 -175 -69 -212 -120 -332 -17 -39 -31 -76 -31 -82 0
-5 -13 -38 -29 -73 -42 -92 -81 -188 -81 -199 0 -6 -12 -36 -26 -67 -38 -83
-263 -544 -274 -562 -5 -8 -26 -44 -46 -80 -21 -36 -56 -96 -79 -135 -23 -38
-44 -77 -47 -86 -4 -9 -34 -54 -67 -101 -34 -47 -61 -88 -61 -92 0 -4 -24 -40
-53 -79 -30 -40 -70 -98 -91 -129 -20 -31 -60 -83 -89 -116 -29 -33 -70 -83
-92 -112 -58 -75 -315 -332 -419 -420 -95 -79 -202 -160 -212 -160 -3 0 -19
-9 -35 -21 -17 -12 -60 -38 -97 -58 -37 -21 -83 -47 -102 -58 -100 -57 -310
-130 -515 -179 -33 -8 -74 -21 -92 -29 -17 -8 -34 -15 -37 -15 -22 0 -146 -69
-193 -108 -73 -59 -84 -72 -133 -154 -33 -55 -42 -82 -51 -150 -22 -176 18
-288 148 -415 119 -116 332 -178 527 -154 107 14 394 83 421 102 6 3 51 20
100 37 109 37 306 123 354 155 20 13 90 56 156 96 178 106 368 245 504 366 77
69 388 381 433 436 101 120 189 231 238 299 30 41 73 98 95 127 22 28 58 81
80 118 22 36 48 76 59 88 35 42 92 132 125 197 18 36 42 74 52 86 11 11 19 24
19 28 0 5 17 36 37 70 87 142 347 664 367 736 4 14 22 57 41 95 19 39 57 126
85 195 28 69 60 145 70 170 28 65 167 451 197 545 14 44 34 101 44 127 10 26
19 59 19 73 0 14 5 35 11 46 5 11 18 50 29 87 42 153 96 288 124 312 22 17 59
-1 76 -39 14 -30 77 -221 109 -331 13 -41 29 -90 37 -108 8 -18 18 -50 23 -70
5 -20 21 -68 35 -107 15 -38 53 -149 86 -245 32 -96 81 -229 109 -295 172
-420 176 -428 279 -640 40 -82 87 -179 104 -215 58 -121 104 -208 122 -230 7
-8 35 -58 63 -110 28 -52 67 -122 87 -155 79 -128 107 -171 127 -195 11 -14
48 -68 82 -122 34 -53 89 -131 122 -174 33 -43 65 -86 70 -95 25 -43 256 -309
370 -428 101 -105 311 -295 395 -357 30 -23 68 -53 83 -68 15 -14 32 -26 38
-26 5 0 9 -4 9 -8 0 -5 12 -14 26 -21 15 -6 45 -27 68 -45 35 -28 101 -70 191
-120 11 -6 40 -25 65 -41 25 -15 88 -48 140 -72 52 -24 102 -48 112 -53 24
-13 204 -80 216 -80 5 0 23 -7 38 -15 16 -8 38 -15 50 -15 11 0 24 -4 30 -9 5
-5 32 -14 59 -20 28 -6 120 -27 205 -47 l155 -37 300 -4 c271 -4 310 -3 400
15 55 11 120 24 145 27 25 4 52 11 60 15 9 5 36 11 60 15 49 7 405 123 485
158 67 29 264 129 345 174 69 38 252 153 260 163 3 4 58 44 123 89 64 45 123
89 131 96 7 8 35 32 62 55 27 23 76 65 109 93 63 54 415 403 500 497 28 30 82
95 120 144 39 48 88 109 111 135 57 64 202 256 226 300 11 20 35 54 52 76 32
40 48 63 167 250 35 55 72 109 81 119 10 11 18 23 18 26 0 4 36 67 80 141 44
73 80 137 80 142 0 5 8 21 19 35 30 43 131 221 163 287 16 33 35 71 43 85 46
85 72 137 116 230 28 58 70 146 94 195 24 50 46 102 49 117 3 15 12 33 19 40
14 14 54 100 49 105 -2 2 8 25 21 51 42 82 66 144 99 257 29 98 32 123 32 230
-1 180 -43 285 -153 388 -150 140 -367 166 -563 66 -39 -20 -171 -145 -205
-194 -28 -41 -128 -235 -165 -320 -42 -98 -104 -235 -149 -333 -22 -45 -39
-85 -39 -88 0 -3 -8 -18 -18 -32 -10 -15 -27 -47 -37 -72 -11 -25 -26 -56 -35
-69 -8 -14 -26 -50 -40 -80 -27 -59 -65 -129 -163 -301 -34 -58 -73 -127 -87
-155 -69 -128 -256 -416 -375 -578 -33 -44 -93 -126 -133 -181 -40 -56 -93
-123 -117 -151 -25 -27 -87 -99 -139 -160 -168 -197 -430 -447 -576 -551 -30
-21 -57 -41 -60 -44 -9 -10 -201 -141 -239 -163 -91 -52 -272 -142 -331 -164
-36 -14 -83 -31 -105 -40 -73 -28 -169 -51 -299 -73 -164 -28 -397 -24 -546 8
-168 37 -214 49 -270 72 -30 12 -71 28 -92 36 -60 22 -238 116 -238 125 0 5
-5 9 -12 9 -7 0 -30 12 -52 27 -105 68 -132 87 -141 97 -5 7 -28 25 -50 41
-64 47 -218 178 -270 230 -98 98 -315 357 -315 375 0 5 -4 10 -8 10 -5 0 -24
21 -42 48 -18 26 -57 77 -87 113 -29 36 -53 69 -53 71 0 11 -91 156 -105 168
-8 7 -15 17 -15 22 0 5 -15 30 -32 55 -33 45 -77 122 -164 288 -25 50 -59 108
-73 130 -15 22 -49 90 -75 150 -27 61 -78 170 -113 243 -77 162 -86 183 -128
297 -36 97 -55 147 -104 267 -17 42 -31 80 -31 85 0 4 -14 42 -31 83 -17 41
-35 91 -40 110 -11 49 -33 122 -63 210 -14 41 -41 127 -60 190 -19 63 -50 167
-70 230 -31 102 -56 201 -70 271 -9 47 -28 125 -37 149 -5 14 -13 48 -18 75
-5 28 -17 84 -28 125 -20 75 -24 95 -84 375 -27 131 -49 247 -65 350 -8 50
-22 136 -39 225 -8 47 -19 121 -24 165 -9 77 -24 175 -56 355 -9 47 -17 117
-19 156 -3 40 -9 105 -15 145 -22 146 -52 420 -61 561 -5 79 -12 159 -15 178
-3 19 -10 139 -15 265 -12 276 -26 498 -40 620 -6 50 -12 133 -14 185 -2 52
-11 145 -20 205 -37 262 -59 432 -58 460 1 28 -11 109 -57 390 -10 66 -25 161
-31 210 -15 118 -19 139 -31 205 -5 30 -21 120 -35 200 -13 80 -34 183 -45
230 -11 47 -27 117 -34 155 -7 39 -22 104 -33 145 -11 41 -27 111 -36 155 -38
199 -87 392 -137 549 -22 65 -39 128 -39 140 0 12 -16 68 -35 126 -19 58 -42
134 -51 170 -18 69 -89 291 -104 325 -5 11 -25 65 -43 120 -19 55 -44 123 -55
150 -11 28 -26 70 -33 95 -7 25 -30 88 -51 140 -75 182 -110 265 -123 290 -7
14 -39 86 -70 160 -48 115 -135 297 -167 350 -5 8 -14 27 -21 43 -6 15 -15 27
-19 27 -4 0 -8 7 -8 15 0 21 -74 162 -165 315 -41 69 -83 142 -95 163 -32 57
-112 180 -132 201 -10 11 -18 25 -18 30 0 6 -16 29 -35 50 -19 22 -35 44 -35
49 0 10 -106 163 -130 187 -8 9 -28 34 -44 55 -74 100 -186 235 -241 291 -33
33 -94 96 -136 140 -91 95 -304 297 -339 321 -14 10 -66 49 -116 88 -159 121
-258 188 -349 233 -16 9 -48 27 -70 42 -36 25 -120 67 -256 128 -63 28 -159
63 -185 67 -12 2 -32 9 -45 16 -13 6 -37 16 -54 20 -16 5 -55 15 -85 24 -84
24 -275 66 -370 81 -59 10 -168 14 -355 13 -251 -1 -280 -3 -405 -28z"/>
</g>
</svg>
